<svg width="1000" height="1000" viewBox="0 0 1000 1000" fill="none" xmlns="http://www.w3.org/2000/svg">
<rect width="1000" height="1000" rx="240" fill="#EA580C"/>
<path d="M457.472 199.599C425.082 199.599 386.773 200.21 340.494 201.45V159.495C340.494 143.577 326.559 135.247 312.802 135.247C298.629 135.247 284.279 143.71 284.279 159.894C284.279 175.439 284.279 190.224 284.571 203.362C234.973 205.132 180.333 207.673 126.152 210.736C108.184 211.719 100 225.22 100 237.357C100 250.849 109.555 265.183 127.267 265.183C132.133 265.183 141.83 264.766 146.359 264.377C177.555 262.376 223.516 260.127 257.073 258.498C267.832 257.967 277.51 257.498 285.322 257.1L286.11 276.957C279.528 275.718 272.972 275.089 266.522 275.089C225.427 275.089 196.726 304.339 196.726 346.214C196.726 392.082 227.294 422.899 272.777 422.899C279.74 422.899 286.331 421.854 292.25 419.862C282.385 433.124 264.85 448.254 238.715 459.019C226.338 464.066 219.234 473.202 219.234 484.073C219.234 499.194 232.221 511.5 248.182 511.5C252.136 511.5 256.542 510.579 261.506 508.676C325.807 480.594 358.418 434.496 358.418 371.64C358.418 351.048 353.481 332.235 344.139 317.141C342.776 298.018 341.9 278.152 341.423 255.108C383.668 253.948 423.569 252.868 459.144 252.868C475.502 252.868 484.332 239.349 484.332 226.637C484.332 213.614 475.927 199.599 457.472 199.599ZM274.865 373.614C263.514 373.614 251.27 363.593 251.27 347.409C251.27 333.2 258.551 324.374 270.273 324.374C284.632 324.374 294.285 335.059 294.285 350.977C294.285 365.363 287.207 373.614 274.865 373.614Z" fill="white"/>
<path d="M821.039 160.708C816.668 156.069 810.891 153.519 804.769 153.519C792.471 153.519 782.084 162.62 782.084 173.394C782.084 177.98 783.695 182.203 786.72 185.567C795.568 195.598 805.698 207.647 813.731 221.05C818.261 228.239 824.852 232.205 832.284 232.205C844.36 232.205 854.561 222.555 854.561 211.135C854.561 206.744 853.296 202.583 850.916 198.962C843.838 186.975 832.646 172.651 821.039 160.708Z" fill="white"/>
<path d="M865.877 133.494C861.134 128.988 854.986 126.5 848.545 126.5C836.477 126.5 826.276 135.238 826.276 145.587C826.276 149.81 828.081 154.139 831.257 157.672C837.326 164.825 848.925 178.928 858.489 193.048C863.355 200.007 870.521 203.999 878.147 203.999C890.401 203.999 900 194.916 900 183.328C900 179.167 898.47 174.625 895.488 169.915C888.64 158.663 877.882 145.419 865.877 133.494Z" fill="white"/>
<path d="M811.856 417.711C809.821 417.711 807.768 418.021 805.424 418.402L804.194 418.605C765.319 426.184 727.356 430.026 691.365 430.026C610.812 430.026 604.406 415.569 604.406 396.668C604.406 391.577 605.114 383.893 606.786 377.89C607.229 375.792 607.742 373.428 607.742 371.242C607.742 356.014 593.259 347.79 579.634 347.79C565.797 347.79 554.95 355.297 551.358 367.284C548.333 376.766 546.519 388.487 546.519 398.651C546.519 458.285 591.189 484.879 691.366 484.879C735.044 484.879 776.511 480.692 814.66 472.441C832.717 468.386 839.132 454.982 839.132 444.739C839.132 431.451 828.931 417.711 811.856 417.711Z" fill="white"/>
<path d="M598.178 242.82C620.649 247.503 648.545 249.69 685.951 249.69C710.21 249.69 741.502 249.141 768.451 244.856C784.447 242.404 791.604 229.744 791.604 218.288C791.604 204.991 781.899 190.861 763.912 190.861C763.019 190.861 762.116 190.985 761.223 191.127C760.869 191.18 760.515 191.26 759.666 191.286C738.804 193.314 711.528 195.633 685.526 195.633C659.807 195.633 632.053 193.066 609.599 188.622C607.343 188.082 604.822 188.082 602.982 188.082C585.269 188.082 575.706 202.415 575.706 215.907C575.706 227.177 582.686 239.872 598.178 242.82Z" fill="white"/>
<path d="M349.818 609.55C312.443 609.55 273.047 623.908 235.309 651.18L235.415 649.364C245.663 637.318 250.556 629.772 250.556 620.693C250.556 613.642 246.275 606.193 236.86 603.634L238.021 546.539C238.234 540.427 236.169 534.962 232.055 530.711C227.011 525.494 219.227 522.5 210.699 522.5C197.251 522.5 182.952 530.861 182.952 546.3L182.172 608.301L130.985 616.362C116.757 618.443 110.268 630.578 110.268 640.967C110.268 653.864 119.549 667.212 135.081 667.212C136.473 667.212 138.201 667.212 140.169 666.733L181.09 659.497L180.496 679.09C157.775 713.571 132.226 747.929 110.223 773.571C106.154 778.416 104 783.961 104 789.621C104 803.385 116.961 815.466 131.739 815.466C139.664 815.466 146.818 811.941 152.403 805.289L179.415 773.385L178.36 849.638C178.36 865.298 192.109 873.5 205.682 873.5C219.467 873.5 233.429 865.298 233.429 849.656L233.837 714.794C272.152 679.993 313.267 660.852 349.818 660.852C381.147 660.852 400.606 680.037 400.606 710.923C400.606 755.289 377.885 780.427 324.659 794.953C307.656 799.497 301.601 811.808 301.601 821.817C301.601 835.112 312.292 848.859 330.182 848.859C332.221 848.859 334.278 848.549 336.627 848.168L338.134 847.902C415.49 828.451 459.859 778.372 459.859 710.524C459.859 652.021 413.575 609.55 349.818 609.55Z" fill="white"/>
<path d="M892.046 673.509C878.039 647.238 851.728 609.701 824.477 585.015C817.917 579.223 810.08 576.158 801.827 576.158C785.888 576.158 772.413 587.637 772.413 601.216C772.413 607.309 775.303 613.669 780.578 619.152C802.297 641.366 824.14 671.517 839.06 699.887C845.23 711.198 855.265 717.69 866.586 717.69C881.045 717.69 896 707.123 896 689.453C896 685.6 895.317 679.718 892.064 673.536C892.055 673.527 892.055 673.518 892.046 673.509Z" fill="white"/>
<path d="M682.353 610.737C677.424 610.737 672.034 610.737 666.201 610.897C670.359 590.285 673.586 570.223 675.837 550.737V547.956C675.837 531.685 661.113 522.899 647.257 522.899C632.266 522.899 620.963 532.217 619.128 546.14C616.495 568.036 612.701 591.233 607.852 615.157C588.295 617.292 565.929 620.011 544.804 623.944C530.806 626.53 521.755 636.645 521.755 649.71C521.755 662.048 530.602 675.157 546.993 675.157C548.935 675.157 551.346 675.157 553.447 674.661C567.746 671.8 581.691 669.47 595.015 667.725C578.819 723.678 557.711 774.253 533.731 814.466C530.859 819.479 529.272 824.767 529.272 829.364C529.272 843.411 541.648 854.421 557.436 854.421C568.837 854.421 578.686 848.859 584.448 839.178C612.133 792.809 637.018 729.931 654.685 661.782C664.366 661.162 673.382 660.852 681.511 660.852C695.181 660.852 703.478 663.554 703.478 700.985C703.478 733.748 699.711 763.837 692.84 785.741C686.227 807.592 680.358 809.878 668.559 809.878C661.29 809.878 655.767 809.311 649.384 808.646L645.59 808.283C645.209 808.283 644.828 808.195 644.482 808.133C643.64 807.982 642.868 807.885 642.248 807.885C624.855 807.885 615.75 821.49 615.75 834.935C615.75 846.432 623.463 859.107 640.643 861.516C649.322 862.818 659.951 863.562 669.818 863.562C714.196 863.562 734.958 846.361 749.151 797.832C756.562 772.535 760.64 738.283 760.64 701.384C760.64 636.158 738.69 610.737 682.353 610.737Z" fill="white"/>
</svg>
