<svg width="65" height="20" viewBox="0 0 65 20" fill="none" xmlns="http://www.w3.org/2000/svg">
<g clip-path="url(#clip0_311_3327)">
<path d="M64.9981 1.00996C65.0036 0.995124 64.9968 0.978594 64.9823 0.972204C64.5836 0.796344 59.2581 -1.52883 54.9096 1.70843C54.9096 1.70843 51.7692 4.02746 52.9767 7.84419C52.9859 7.86886 53.5567 10.164 57.18 11.7099C57.1981 11.7159 59.4031 12.6281 58.9687 14.0759C58.9683 14.0771 58.968 14.0783 58.9675 14.0795C58.9485 14.1284 58.5314 15.1406 56.504 15.1406C56.504 15.1406 54.8132 15.1406 52.9773 14.4643C52.9647 14.459 52.0178 14.0591 52.0105 14.0777L50.5695 17.9215C50.5644 17.9343 50.5685 17.9487 50.5796 17.9566C50.7816 18.1008 52.6326 19.3414 56.4557 19.2959C56.4557 19.2959 62.0122 19.2476 63.6067 15.2856C63.6067 15.2856 65.1039 12.098 62.5936 9.48918C62.5926 9.48818 62.5917 9.48718 62.5909 9.48608C62.5574 9.44319 61.7579 8.44449 59.0167 7.16837C59.0113 7.16547 57.7603 6.48956 57.7603 5.42887C57.7603 5.42887 57.7603 4.31757 59.3064 4.1243C59.3064 4.1243 61.8003 3.78858 63.5084 4.86608C63.5341 4.8823 63.5681 4.87113 63.5786 4.84262L64.9981 1.00996Z" fill="white"/>
<path d="M52.354 0.452148H40.8473C40.8262 0.452148 40.8081 0.467188 40.8043 0.487908L37.3899 19.0027C37.3849 19.0295 37.4056 19.0543 37.4329 19.0543H49.3264C49.3476 19.0543 49.3657 19.0391 49.3694 19.0182L50.0788 14.9986C50.0835 14.9719 50.0629 14.9473 50.0358 14.9473H42.8449C42.8174 14.9473 42.7968 14.9223 42.802 14.8953L43.4615 11.5038C43.4655 11.4833 43.4835 11.4685 43.5044 11.4685H49.859C49.8797 11.4685 49.8976 11.4539 49.9018 11.4337L50.705 7.55902C50.7107 7.53191 50.69 7.50647 50.6623 7.50647H44.2457C44.2184 7.50647 44.1978 7.48162 44.2028 7.45474L44.7662 4.4498C44.7701 4.42914 44.7882 4.41417 44.8092 4.41417H51.598C51.6189 4.41417 51.6369 4.39937 51.6409 4.37885L52.3969 0.504198C52.4021 0.477228 52.3815 0.452148 52.354 0.452148Z" fill="white"/>
<path d="M34.786 0.452148H39.3356C39.3629 0.452148 39.3835 0.476908 39.3785 0.503758L35.9641 19.0185C35.9603 19.0392 35.9422 19.0543 35.9212 19.0543H31.3715C31.3442 19.0543 31.3236 19.0295 31.3286 19.0027L34.743 0.487908C34.7468 0.467188 34.7649 0.452148 34.786 0.452148Z" fill="white"/>
<path d="M33.8079 0.452148H28.4092C28.3933 0.452148 28.3787 0.460958 28.3713 0.475028L25.1 6.68582C25.0819 6.72019 25.0311 6.71466 25.0208 6.67721L23.3187 0.483648C23.3136 0.465048 23.2967 0.452158 23.2774 0.452158H18.4423C18.4127 0.452158 18.3921 0.481438 18.4019 0.509318L21.6115 9.56307C21.6162 9.57626 21.6141 9.5909 21.606 9.60229L17.3355 15.581C17.3126 15.613 17.2624 15.5999 17.258 15.5608L15.5835 0.490268C15.5811 0.468568 15.5628 0.452148 15.5409 0.452148H9.61516C9.59856 0.452148 9.58345 0.461738 9.57638 0.476768L0.871249 18.9932C0.857889 19.0216 0.878629 19.0543 0.910029 19.0543H5.79021C5.80773 19.0543 5.82349 19.0436 5.82999 19.0274L11.7391 4.25449C11.7561 4.21196 11.819 4.2222 11.8217 4.26792L12.6779 19.0139C12.6792 19.0366 12.698 19.0543 12.7207 19.0543H20.4334C20.4493 19.0543 20.464 19.0454 20.4714 19.0313L23.8407 12.5773C23.8586 12.5431 23.9089 12.548 23.9198 12.585L25.8135 19.0235C25.8189 19.0418 25.8356 19.0543 25.8546 19.0543H30.8339C30.8638 19.0543 30.8846 19.0243 30.874 18.9963L27.3285 9.60563C27.3234 9.5922 27.3254 9.57712 27.3338 9.56547L33.8427 0.520028C33.8631 0.491688 33.8428 0.452148 33.8079 0.452148Z" fill="white"/>
<path d="M2.29204 9.63234C2.29204 9.63234 3.49997 7.69965 8.66992 11.0335C8.66992 11.0335 13.2117 14.1258 12.0521 16.3001C12.0521 16.3001 10.8442 18.3778 5.62593 15.0439C5.62593 15.0439 0.987471 11.9999 2.29204 9.63234Z" fill="#E2690D"/>
</g>
<defs>
<clipPath id="clip0_311_3327">
<rect width="64.1329" height="19.2971" fill="white" transform="translate(0.867126)"/>
</clipPath>
</defs>
</svg>
