<svg width="69" height="24" viewBox="0 0 69 24" fill="none" xmlns="http://www.w3.org/2000/svg">
<path d="M2.71792 0.287354L66.8823 0.401334C67.7789 0.401334 68.5798 0.268404 68.5798 2.19036L68.5012 23.3207H1.09872V2.11181C1.09872 1.16401 1.19046 0.287354 2.71792 0.287354Z" fill="#A9B1AB"/>
<path d="M67.5948 0H2.21253C1.51129 0 0.940521 0.57044 0.940521 1.2716V23.4873C0.940521 23.6458 1.06933 23.7743 1.22782 23.7743H68.5798C68.7383 23.7743 68.8671 23.6458 68.8671 23.4873V1.2716C68.8671 0.57043 68.2963 0 67.5948 0ZM2.21252 0.57455H67.5948C67.9796 0.57455 68.2925 0.88709 68.2925 1.2716V16.7113H21.4089C19.696 19.8082 16.3961 21.9109 12.6089 21.9109C8.82005 21.9109 5.52095 19.8101 3.80892 16.7113H1.51513V1.2716C1.51513 0.8871 1.82798 0.57455 2.21252 0.57455Z" fill="#040000"/>
<path d="M42.7205 18.5369C42.899 18.5369 43.0621 18.5528 43.2099 18.5841C43.3572 18.6154 43.4829 18.667 43.5884 18.739C43.6934 18.8104 43.7752 18.906 43.8329 19.0246C43.8906 19.1438 43.9197 19.2905 43.9197 19.4657C43.9197 19.6547 43.8768 19.8118 43.7906 19.9376C43.7049 20.0639 43.5774 20.1666 43.4093 20.2474C43.6412 20.3138 43.8142 20.4303 43.9285 20.5967C44.0427 20.7631 44.0999 20.9636 44.0999 21.1982C44.0999 21.3871 44.0631 21.5508 43.9895 21.6892C43.9158 21.8271 43.8164 21.9403 43.6923 22.0276C43.5676 22.1155 43.4253 22.1803 43.266 22.2221C43.1061 22.2644 42.9424 22.2852 42.7738 22.2852H40.9532V18.5369L42.7205 18.5369ZM42.615 20.0529C42.7622 20.0529 42.8831 20.0178 42.9781 19.948C43.0726 19.8782 43.1198 19.7651 43.1198 19.608C43.1198 19.5207 43.1039 19.4487 43.0726 19.3932C43.0407 19.3372 42.999 19.2938 42.9462 19.2619C42.8935 19.2306 42.8331 19.2087 42.765 19.1966C42.6968 19.1845 42.6254 19.1784 42.5524 19.1784H41.7794V20.0529H42.615ZM42.6633 21.6437C42.7441 21.6437 42.821 21.636 42.8946 21.62C42.9682 21.6041 43.033 21.5777 43.0896 21.5415C43.1456 21.5047 43.1901 21.4547 43.2237 21.3915C43.2572 21.3289 43.2736 21.2482 43.2736 21.1504C43.2736 20.9581 43.2193 20.8208 43.1105 20.7384C43.0017 20.6566 42.8578 20.6154 42.6792 20.6154H41.7794V21.6436L42.6633 21.6437Z" fill="white"/>
<path d="M44.2454 18.5369H45.17L46.0478 20.0172L46.9202 18.5369H47.8392L46.4478 20.8466V22.2852H45.6215V20.8258L44.2454 18.5369Z" fill="white"/>
<path d="M20.3302 11.0981C20.333 15.3603 16.8792 18.8173 12.6169 18.82C8.35448 18.8227 4.89662 15.3696 4.89415 11.1075V11.0981C4.89168 6.8359 8.34514 3.37896 12.6075 3.37647C16.8704 3.37375 20.3277 6.82685 20.3302 11.0891V11.0981Z" fill="white"/>
<path d="M18.8863 4.81228C20.5977 6.52359 21.4536 8.6194 21.4536 11.0981C21.4536 13.5773 20.6126 15.6506 18.9305 17.3179C17.1454 19.074 15.0356 19.9518 12.6012 19.9518C10.1962 19.9518 8.12293 19.0811 6.38204 17.3399C4.64089 15.5989 3.77045 13.5185 3.77045 11.0981C3.77045 8.67817 4.6409 6.5829 6.38204 4.81228C8.0787 3.10043 10.1519 2.24463 12.6012 2.24463C15.0801 2.24463 17.1748 3.10042 18.8863 4.81228ZM7.53431 5.96358C6.08734 7.42496 5.36413 9.13682 5.36413 11.1005C5.36413 13.0637 6.08021 14.761 7.51207 16.1924C8.9442 17.6244 10.6491 18.3402 12.6273 18.3402C14.6055 18.3402 16.3249 17.6173 17.7865 16.1708C19.1741 14.8272 19.8682 13.1379 19.8682 11.1005C19.8682 9.0786 19.1628 7.36237 17.753 5.95262C16.3433 4.54313 14.6349 3.83812 12.6273 3.83812C10.6197 3.83812 8.9217 4.5467 7.53431 5.96358ZM11.3421 10.2368C11.121 9.75479 10.79 9.51364 10.3486 9.51364C9.56827 9.51364 9.17824 10.039 9.17824 11.0893C9.17824 12.1398 9.56827 12.6646 10.3486 12.6646C10.8639 12.6646 11.232 12.409 11.4528 11.8965L12.5345 12.4724C12.0189 13.3883 11.2454 13.8464 10.214 13.8464C9.4186 13.8464 8.78136 13.6025 8.30286 13.1153C7.82356 12.6276 7.58459 11.9552 7.58459 11.0981C7.58459 10.256 7.83124 9.58751 8.32483 9.09235C8.81842 8.59716 9.43313 8.34969 10.1701 8.34969C11.2603 8.34969 12.0409 8.77925 12.5128 9.6375L11.3421 10.2368ZM16.431 10.2368C16.2096 9.75479 15.8852 9.51364 15.4575 9.51364C14.6615 9.51364 14.2632 10.039 14.2632 11.0893C14.2632 12.1398 14.6615 12.6646 15.4575 12.6646C15.9736 12.6646 16.3351 12.409 16.5414 11.8965L17.6472 12.4724C17.1325 13.3883 16.3601 13.8464 15.3306 13.8464C14.5363 13.8464 13.9004 13.6025 13.4222 13.1153C12.9448 12.6276 12.7056 11.9552 12.7056 11.0981C12.7056 10.256 12.9484 9.58751 13.4337 9.09235C13.9188 8.59716 14.5363 8.34969 15.2867 8.34969C16.3749 8.34969 17.1544 8.77925 17.6247 9.6375L16.431 10.2368Z" fill="#040000"/>
<path d="M44.1119 14.6921C47.4691 14.6921 50.1907 11.9706 50.1907 8.61341C50.1907 5.25621 47.4691 2.53467 44.1119 2.53467C40.7547 2.53467 38.0332 5.25621 38.0332 8.61341C38.0332 11.9706 40.7547 14.6921 44.1119 14.6921Z" fill="white"/>
<path d="M45.871 6.85496C45.871 6.62069 45.6809 6.43091 45.4474 6.43091H42.7622C42.5287 6.43091 42.3387 6.62069 42.3387 6.85496V9.53961H43.0874V12.7186H45.1222V9.53961H45.871V6.85496Z" fill="#040000"/>
<path d="M44.1048 6.07764C44.6121 6.07764 45.0233 5.66643 45.0233 5.15918C45.0233 4.65193 44.6121 4.24072 44.1048 4.24072C43.5975 4.24072 43.1863 4.65193 43.1863 5.15918C43.1863 5.66643 43.5975 6.07764 44.1048 6.07764Z" fill="#040000"/>
<path fill-rule="evenodd" clip-rule="evenodd" d="M44.0966 1.9165C42.2782 1.9165 40.739 2.55093 39.4793 3.81979C38.1867 5.13232 37.5407 6.68598 37.5407 8.47968C37.5407 10.2734 38.1867 11.8161 39.4793 13.1069C40.7719 14.3974 42.3112 15.0429 44.0966 15.0429C45.9039 15.0429 47.4706 14.3925 48.7957 13.0904C50.0443 11.8545 50.6689 10.3176 50.6689 8.47968C50.6689 6.64176 50.0333 5.08865 48.7633 3.81979C47.4921 2.55094 45.9369 1.9165 44.0966 1.9165ZM44.113 3.09747C45.6029 3.09747 46.868 3.62286 47.9085 4.6731C48.9599 5.71208 49.4856 6.98094 49.4856 8.47967C49.4856 9.98911 48.9709 11.2418 47.9414 12.2371C46.8565 13.3093 45.5809 13.8451 44.113 13.8451C42.6446 13.8451 41.3795 13.3148 40.3176 12.2536C39.2546 11.1923 38.724 9.93446 38.724 8.47967C38.724 7.02461 39.2607 5.75602 40.3341 4.6731C41.3636 3.62285 42.6232 3.09747 44.113 3.09747Z" fill="#040000"/>
</svg>
