<svg width="997" height="128" viewBox="0 0 997 128" fill="none" xmlns="http://www.w3.org/2000/svg">
<path d="M284.102 104.5C276.657 104.5 266.809 101.549 260.75 90.7339H18.805C8.43591 90.7339 0 82.2823 0 71.8936V42.3398C0 31.9515 8.43591 23.5 18.805 23.5H308.5C318.869 23.5 327.305 31.9515 327.305 42.3398V71.8936C327.305 82.2823 318.869 90.7338 308.5 90.7338H287.781C289.15 95.1712 291.203 96.927 291.519 97.1762C292.751 97.9371 293.348 99.3137 293.146 100.754C292.941 102.208 291.814 103.352 290.398 103.731C288.698 104.187 286.526 104.5 284.102 104.5ZM18.805 30.8172C12.4625 30.8172 7.3028 35.986 7.3028 42.3398V71.8936C7.3028 78.2474 12.4625 83.4167 18.805 83.4167H262.974C264.387 83.4167 265.673 84.2331 266.276 85.5128C270.498 94.4661 277.473 96.7378 282.493 97.0926C281.298 94.7476 280.205 91.6327 279.641 87.5808C279.495 86.5325 279.81 85.4722 280.503 84.6736C281.196 83.875 282.201 83.4167 283.258 83.4167H308.5C314.842 83.4167 320.002 78.2474 320.002 71.8936V42.3398C320.002 35.986 314.842 30.8172 308.5 30.8172L18.805 30.8172Z" fill="#231815"/>
<path d="M18.805 30.8172C12.4625 30.8172 7.3028 35.986 7.3028 42.3398V71.8936C7.3028 78.2474 12.4625 83.4167 18.805 83.4167H262.974C264.387 83.4167 265.673 84.2331 266.276 85.5128C270.498 94.4661 277.473 96.7378 282.493 97.0926C281.298 94.7476 280.205 91.6327 279.641 87.5808C279.495 86.5325 279.81 85.4722 280.503 84.6736C281.196 83.875 282.201 83.4167 283.258 83.4167H308.5C314.842 83.4167 320.002 78.2474 320.002 71.8936V42.3398C320.002 35.986 314.842 30.8172 308.5 30.8172L18.805 30.8172Z" fill="white"/>
<g clip-path="url(#clip0_1009_6025)">
<path d="M22.5708 49.6172C23.03 48.4393 23.7454 47.9446 24.9201 47.9446C26.1463 47.9446 26.8617 48.4393 27.2956 49.5933L32.8381 64.195C32.915 64.4068 32.9658 64.6426 32.9658 64.8305C32.9658 65.608 32.2765 66.1259 31.2035 66.1259C30.4627 66.1259 30.0542 65.7727 29.8757 65.2308L28.0364 59.9322H21.6762L19.8122 65.2308C19.6076 65.7727 19.1737 66.1259 18.4583 66.1259C17.4113 66.1259 16.7982 65.608 16.7982 64.9015C16.7982 64.6897 16.849 64.4308 16.9259 64.2183L22.5708 49.6172ZM24.767 50.653C24.4093 51.9013 24.0262 53.2439 23.6431 54.3507L22.4939 57.6481H27.2448L26.0955 54.3036C25.7124 53.1728 25.3032 51.9013 24.9455 50.653L24.767 50.653Z" fill="#231815" stroke="#231815" stroke-width="0.8" stroke-linecap="round" stroke-linejoin="round"/>
<path d="M57.5827 58.8957C57.5827 57.1295 57.3788 56.5644 57.0973 56.2583C56.7911 55.8812 56.3572 55.6693 55.7695 55.6693C54.0579 55.6693 52.7302 57.0823 52.7302 59.5318V64.8775C52.7302 65.6312 52.1679 66.1026 51.2994 66.1026C50.4055 66.1026 49.8185 65.6551 49.8185 64.8775V58.8485C49.8185 57.1295 49.6139 56.5644 49.3585 56.2583C49.0262 55.8812 48.5923 55.6693 48.0046 55.6693C46.2937 55.6693 44.9906 57.0823 44.9906 59.5318V64.8775C44.9906 65.6311 44.4291 66.1026 43.5352 66.1026C42.6406 66.1026 42.079 65.6551 42.079 64.8775V54.7511C42.079 54.0446 42.6921 53.5499 43.5091 53.5499C44.3268 53.5499 44.8883 54.0446 44.8883 54.7511V55.9051C45.3229 54.4682 46.8553 53.4324 48.3877 53.4324C49.8693 53.4324 50.7886 53.7385 51.5548 54.5153C51.8617 54.8214 52.0917 55.1514 52.2702 55.5518C52.8833 54.3267 54.2879 53.4324 56.1526 53.4324C57.6596 53.4324 58.5535 53.7385 59.3451 54.5153C60.1628 55.3632 60.5205 56.3287 60.5205 58.5192V62.0755C60.5205 62.9467 60.5967 63.9831 60.8013 64.6657C60.8267 64.7839 60.8267 64.9718 60.8267 65.0661C60.8267 65.6551 60.1628 66.1026 59.192 66.1026C58.4512 66.1026 58.0427 65.8197 57.8642 65.2547C57.6342 64.4771 57.5827 63.4885 57.5827 62.3106L57.5827 58.8957Z" fill="#231815" stroke="#231815" stroke-width="0.8" stroke-linecap="round" stroke-linejoin="round"/>
<path d="M64.1681 54.7742C64.1681 54.0206 64.7297 53.5498 65.6236 53.5498C66.5436 53.5498 67.1052 53.9973 67.1052 54.7742V60.7561C67.1052 62.5229 67.3098 63.0641 67.5906 63.3702C67.9221 63.7473 68.3567 63.9831 69.0206 63.9831C70.9361 63.9831 72.2138 62.8523 72.2138 60.3557V54.7742C72.2138 54.0206 72.7754 53.5498 73.6693 53.5498C74.5893 53.5498 75.1509 53.9973 75.1509 54.7742V59.8849C75.1509 62.0044 75.3294 63.4173 75.5086 64.3124C75.5594 64.501 75.6363 64.7838 75.6363 65.1603C75.6363 65.7725 74.9978 66.1257 74.0524 66.1257C73.4393 66.1257 73.1077 65.8668 72.8777 65.3017C72.75 64.9485 72.5969 64.477 72.4946 63.983C71.8815 65.2546 70.3745 66.22 68.6122 66.22C67.0544 66.22 66.1344 65.9139 65.3428 65.1371C64.4997 64.2892 64.1681 63.323 64.1681 61.1332L64.1681 54.7742Z" fill="#231815" stroke="#231815" stroke-width="0.8" stroke-linecap="round" stroke-linejoin="round"/>
<path d="M82.2484 60.5443C79.209 59.8618 78.1874 58.8724 78.1874 56.8234C78.1874 54.7982 80.0775 53.4324 82.8361 53.4324C84.6753 53.4324 86.0539 53.8799 87.2039 54.8214C87.4847 55.0571 87.6124 55.3161 87.6124 55.7165C87.6124 56.3287 87.0762 56.8705 86.3354 56.8705C86.0285 56.8705 85.6969 56.7762 85.4669 56.5644C84.5476 55.7165 83.9599 55.5047 82.8615 55.5047C81.4568 55.5047 80.8945 56.1408 80.8945 56.8473C80.8945 57.6713 81.2268 58.0245 83.1938 58.4249L84.113 58.6135C86.9485 59.2017 88.0463 60.2622 88.0463 62.3816C88.0463 64.6657 86.1562 66.2201 83.0407 66.2201C80.6906 66.2201 79.1836 65.5375 78.0597 64.4307C77.8043 64.195 77.7274 63.9831 77.7274 63.5828C77.7274 62.9699 78.3151 62.523 79.0044 62.523C79.3875 62.523 79.6944 62.6406 79.9752 62.9234C80.8437 63.7707 81.6614 64.1478 83.0407 64.1478C84.5476 64.1478 85.3138 63.4413 85.3138 62.4287C85.3138 61.5569 84.8284 61.1333 83.0915 60.7329L82.2484 60.5443Z" fill="#231815" stroke="#231815" stroke-width="0.8" stroke-linecap="round" stroke-linejoin="round"/>
<path d="M94.7868 62.4048C94.7868 63.5588 95.323 64.0064 96.1661 64.0064C96.4469 64.0064 96.6515 63.9831 97.1108 63.8889C97.4177 63.8178 97.6731 63.7474 97.9285 63.7474C98.4139 63.7474 98.8224 64.1478 98.8224 64.8543C98.8224 65.3018 98.5669 65.6079 98.1585 65.7493C97.4431 65.9844 96.5746 66.1026 95.7569 66.1026C93.0752 66.1026 91.849 65.0429 91.849 62.193V55.9522H90.5466C89.7035 55.9522 89.2697 55.5047 89.2697 54.8453C89.2697 54.186 89.7035 53.7385 90.5466 53.7385H91.849V50.5586C91.849 49.7818 92.4113 49.3342 93.3306 49.3342C94.2245 49.3342 94.7868 49.805 94.7868 50.5586V53.7385H97.3154C98.1323 53.7385 98.5923 54.186 98.5923 54.8453C98.5923 55.5047 98.1323 55.9522 97.3154 55.9522H94.7868L94.7868 62.4048Z" fill="#231815" stroke="#231815" stroke-width="0.8" stroke-linecap="round" stroke-linejoin="round"/>
<path d="M107.631 58.2603C108.321 58.2603 108.781 58.731 108.781 59.3903C108.781 60.0497 108.321 60.5211 107.631 60.5211H101.272C100.582 60.5211 100.123 60.0497 100.123 59.3903C100.123 58.731 100.582 58.2603 101.272 58.2603H107.631Z" fill="#231815" stroke="#231815" stroke-width="0.8" stroke-linecap="round" stroke-linejoin="round"/>
<path d="M114.576 64.8775C114.576 65.6311 114.015 66.1026 113.121 66.1026C112.202 66.1026 111.639 65.6551 111.639 64.8775V54.751C111.639 54.0446 112.252 53.5499 113.096 53.5499C113.913 53.5499 114.475 54.0446 114.475 54.751V56.5644C115.062 54.4921 116.263 53.4324 118 53.4324C119.072 53.4324 119.43 53.9031 119.43 54.7511C119.43 55.5518 118.97 56.0465 118 56.0465C116.16 56.0465 114.576 57.6241 114.576 60.5683V64.8775Z" fill="#231815" stroke="#231815" stroke-width="0.8" stroke-linecap="round" stroke-linejoin="round"/>
<path d="M123.642 60.5682C123.744 62.782 125.353 64.0535 127.013 64.0535C128.189 64.0535 129.057 63.8417 130.002 63.1352C130.232 62.9698 130.487 62.8523 130.793 62.8523C131.509 62.8523 132.02 63.347 132.02 63.936C132.02 64.3124 131.892 64.5714 131.662 64.76C130.462 65.6783 128.801 66.1968 127.013 66.1968C123.31 66.1968 120.884 63.8649 120.884 59.7907C120.884 55.8811 123.438 53.4556 126.835 53.4556C129.823 53.4556 132.199 55.6693 132.199 58.4952C132.199 59.8617 131.407 60.5682 130.027 60.5682L123.642 60.5682ZM128.903 58.6134C129.313 58.6134 129.491 58.3545 129.491 58.0245C129.491 56.8944 128.495 55.5279 126.783 55.5279C124.996 55.5279 123.821 56.8472 123.719 58.6134H128.903Z" fill="#231815" stroke="#231815" stroke-width="0.8" stroke-linecap="round" stroke-linejoin="round"/>
<path d="M141.85 57.4355C141.85 56.3054 141.059 55.599 139.73 55.599C138.658 55.599 137.789 55.9754 136.972 56.6348C136.768 56.7762 136.538 56.8944 136.257 56.8944C135.567 56.8944 134.903 56.3758 134.903 55.7165C134.903 55.4575 135.031 55.1986 135.235 55.01C136.155 54.186 137.943 53.4324 139.833 53.4324C142.872 53.4324 144.66 54.7982 144.66 57.4123V61.6984C144.66 63.3231 144.967 63.7946 145.554 64.1478C145.937 64.3835 146.091 64.5953 146.091 64.9718C146.091 65.6551 145.631 66.1026 144.992 66.1026C144.532 66.1026 144.124 66.0083 143.817 65.8669C143.127 65.5608 142.744 65.2075 142.463 64.5482C141.646 65.6079 140.548 66.2201 138.581 66.2201C135.746 66.2201 134.137 64.7839 134.137 62.6166C134.137 60.474 135.516 59.2018 137.636 58.6839C139.169 58.3074 140.496 58.2131 141.85 58.2131V57.4355ZM141.85 60.0968C140.727 60.0968 139.68 60.1911 138.606 60.5443C137.61 60.8744 136.921 61.4626 136.921 62.4048C136.921 63.4885 137.534 64.195 139.066 64.195C140.573 64.195 141.85 63.1352 141.85 61.5569V60.0968Z" fill="#231815" stroke="#231815" stroke-width="0.8" stroke-linecap="round" stroke-linejoin="round"/>
<path d="M159.804 59.885C159.804 62.0044 159.983 63.4174 160.161 64.3124C160.212 64.501 160.289 64.7839 160.289 65.1603C160.289 65.7493 159.625 66.1258 158.705 66.1258C158.093 66.1258 157.735 65.8668 157.531 65.3018C157.403 64.9485 157.25 64.501 157.147 64.0302C156.432 65.4664 155.13 66.2201 153.648 66.2201C150.098 66.2201 147.774 63.8888 147.774 59.8146C147.774 55.6461 150.353 53.4323 153.725 53.4323C154.874 53.4323 156.126 53.9735 156.867 54.7981V49.0042C156.867 48.2273 157.428 47.7798 158.348 47.7798C159.267 47.7798 159.804 48.2505 159.804 49.0042V59.885ZM156.867 57.2476C156.254 56.2583 155.079 55.6222 153.929 55.6222C152.116 55.6222 150.711 57.0823 150.711 59.8146C150.711 62.7109 151.988 64.1006 153.878 64.1006C155.436 64.1006 156.867 62.7348 156.867 60.6386V57.2476Z" fill="#231815" stroke="#231815" stroke-width="0.8" stroke-linecap="round" stroke-linejoin="round"/>
<path d="M176.836 53.7384C177.653 53.7384 178.113 54.186 178.113 54.8453C178.113 55.5046 177.653 55.9522 176.836 55.9522H174.409V64.8775C174.409 65.6311 173.847 66.1026 172.953 66.1026C172.033 66.1026 171.471 65.655 171.471 64.8775V55.9522H169.964C169.121 55.9522 168.688 55.5046 168.688 54.8453C168.688 54.186 169.121 53.7384 169.964 53.7384H171.471V52.0897C171.471 49.2167 173.362 47.7798 175.967 47.7798C176.452 47.7798 176.836 47.8037 177.219 47.8741C177.729 47.9445 178.112 48.3216 178.112 48.9809C178.112 49.6642 177.627 50.135 177.167 50.135C176.886 50.135 176.478 50.0646 176.069 50.0646C174.945 50.0646 174.409 50.6768 174.409 52.0426V53.7384L176.836 53.7384Z" fill="#231815" stroke="#231815" stroke-width="0.8" stroke-linecap="round" stroke-linejoin="round"/>
<path d="M179.567 59.7907C179.567 55.8108 182.121 53.4324 185.62 53.4324C189.119 53.4324 191.673 55.8108 191.673 59.7907C191.673 63.7946 189.17 66.2201 185.62 66.2201C182.095 66.2201 179.567 63.7946 179.567 59.7907ZM188.735 59.7907C188.735 57.0591 187.638 55.5751 185.62 55.5751C183.627 55.5751 182.504 57.0591 182.504 59.7907C182.504 62.5463 183.627 64.0768 185.62 64.0768C187.638 64.0768 188.735 62.5463 188.735 59.7907Z" fill="#231815" stroke="#231815" stroke-width="0.8" stroke-linecap="round" stroke-linejoin="round"/>
<path d="M197.57 64.8775C197.57 65.6311 197.008 66.1026 196.114 66.1026C195.194 66.1026 194.633 65.6551 194.633 64.8775V54.751C194.633 54.0446 195.246 53.5499 196.089 53.5499C196.906 53.5499 197.468 54.0446 197.468 54.751V56.5644C198.055 54.4921 199.256 53.4324 200.993 53.4324C202.065 53.4324 202.423 53.9031 202.423 54.7511C202.423 55.5518 201.963 56.0465 200.993 56.0465C199.154 56.0465 197.57 57.6241 197.57 60.5683V64.8775Z" fill="#231815" stroke="#231815" stroke-width="0.8" stroke-linecap="round" stroke-linejoin="round"/>
<path d="M215.319 62.4048C215.319 63.5588 215.855 64.0064 216.698 64.0064C216.979 64.0064 217.183 63.9831 217.643 63.8889C217.949 63.8178 218.205 63.7474 218.46 63.7474C218.946 63.7474 219.354 64.1478 219.354 64.8543C219.354 65.3018 219.099 65.6079 218.69 65.7493C217.975 65.9844 217.106 66.1026 216.289 66.1026C213.607 66.1026 212.381 65.0429 212.381 62.193V55.9522H211.078C210.235 55.9522 209.801 55.5047 209.801 54.8453C209.801 54.186 210.235 53.7385 211.078 53.7385H212.381V50.5586C212.381 49.7818 212.943 49.3342 213.862 49.3342C214.756 49.3342 215.319 49.805 215.319 50.5586V53.7385H217.847C218.664 53.7385 219.124 54.186 219.124 54.8453C219.124 55.5047 218.664 55.9522 217.847 55.9522H215.319V62.4048Z" fill="#231815" stroke="#231815" stroke-width="0.8" stroke-linecap="round" stroke-linejoin="round"/>
<path d="M223.515 60.5682C223.617 62.782 225.226 64.0535 226.886 64.0535C228.062 64.0535 228.93 63.8417 229.875 63.1352C230.105 62.9698 230.36 62.8523 230.666 62.8523C231.382 62.8523 231.893 63.347 231.893 63.936C231.893 64.3124 231.765 64.5714 231.535 64.76C230.335 65.6783 228.674 66.1968 226.886 66.1968C223.183 66.1968 220.757 63.8649 220.757 59.7907C220.757 55.8811 223.311 53.4556 226.708 53.4556C229.696 53.4556 232.072 55.6693 232.072 58.4952C232.072 59.8617 231.279 60.5682 229.9 60.5682L223.515 60.5682ZM228.776 58.6134C229.186 58.6134 229.364 58.3545 229.364 58.0245C229.364 56.8944 228.368 55.5279 226.656 55.5279C224.868 55.5279 223.694 56.8472 223.591 58.6134H228.776Z" fill="#231815" stroke="#231815" stroke-width="0.8" stroke-linecap="round" stroke-linejoin="round"/>
<path d="M241.723 57.4355C241.723 56.3054 240.932 55.599 239.603 55.599C238.531 55.599 237.662 55.9754 236.845 56.6348C236.641 56.7762 236.411 56.8944 236.13 56.8944C235.44 56.8944 234.776 56.3758 234.776 55.7165C234.776 55.4575 234.904 55.1986 235.108 55.01C236.028 54.186 237.815 53.4324 239.705 53.4324C242.745 53.4324 244.533 54.7982 244.533 57.4123V61.6984C244.533 63.3231 244.84 63.7946 245.427 64.1478C245.81 64.3835 245.963 64.5953 245.963 64.9718C245.963 65.6551 245.503 66.1026 244.865 66.1026C244.405 66.1026 243.996 66.0083 243.69 65.8669C243 65.5608 242.617 65.2075 242.336 64.5482C241.519 65.6079 240.421 66.2201 238.454 66.2201C235.619 66.2201 234.01 64.7839 234.01 62.6166C234.01 60.474 235.389 59.2018 237.509 58.6839C239.042 58.3074 240.369 58.2131 241.723 58.2131V57.4355ZM241.723 60.0968C240.599 60.0968 239.552 60.1911 238.479 60.5443C237.483 60.8744 236.794 61.4626 236.794 62.4048C236.794 63.4885 237.407 64.195 238.939 64.195C240.446 64.195 241.723 63.1352 241.723 61.5569V60.0968Z" fill="#231815" stroke="#231815" stroke-width="0.8" stroke-linecap="round" stroke-linejoin="round"/>
<path d="M258.093 64.7368C256.969 65.7254 255.666 66.2201 253.956 66.2201C250.124 66.2201 247.672 63.7706 247.672 59.7907C247.672 55.8579 250.277 53.4324 253.956 53.4324C255.283 53.4324 256.509 53.7146 257.71 54.3739C258.119 54.6096 258.297 54.8925 258.297 55.4104C258.297 55.9994 257.761 56.5405 257.071 56.5405C256.688 56.5405 256.433 56.423 256.126 56.2583C255.232 55.7636 254.67 55.599 253.956 55.599C252.091 55.599 250.635 56.8234 250.635 59.7907C250.635 62.8052 252.091 64.0535 253.981 64.0535C254.952 64.0535 255.718 63.7235 256.382 63.1352C256.612 62.9234 256.867 62.8052 257.173 62.8052C257.914 62.8052 258.476 63.2767 258.476 63.8178C258.476 64.2182 258.374 64.4771 258.093 64.7368Z" fill="#231815" stroke="#231815" stroke-width="0.8" stroke-linecap="round" stroke-linejoin="round"/>
<path d="M268.996 58.8956C268.996 57.1294 268.792 56.5644 268.511 56.2583C268.179 55.8811 267.745 55.6693 267.106 55.6693C265.369 55.6693 263.99 57.0823 263.99 59.5317V64.8775C263.99 65.6311 263.428 66.1025 262.535 66.1025C261.615 66.1025 261.053 65.655 261.053 64.8775V49.0042C261.053 48.2273 261.615 47.7798 262.535 47.7798C263.454 47.7798 263.99 48.2505 263.99 49.0042V55.6221C264.527 54.3267 266.034 53.4323 267.515 53.4323C269.048 53.4323 269.967 53.7384 270.759 54.5153C271.602 55.3632 271.96 56.3286 271.96 58.5191V62.0755C271.96 62.9466 272.036 63.9831 272.24 64.6657C272.266 64.7839 272.266 64.9718 272.266 65.0661C272.266 65.655 271.602 66.1026 270.606 66.1026C269.865 66.1026 269.456 65.8197 269.277 65.2546C269.048 64.4771 268.996 63.4884 268.996 62.3105V58.8956Z" fill="#231815" stroke="#231815" stroke-width="0.8" stroke-linecap="round" stroke-linejoin="round"/>
<path d="M277.652 60.5682C277.754 62.782 279.363 64.0535 281.023 64.0535C282.199 64.0535 283.067 63.8417 284.012 63.1352C284.242 62.9698 284.497 62.8523 284.803 62.8523C285.519 62.8523 286.03 63.347 286.03 63.936C286.03 64.3124 285.902 64.5714 285.672 64.76C284.472 65.6783 282.811 66.1968 281.023 66.1968C277.32 66.1968 274.894 63.8649 274.894 59.7907C274.894 55.8811 277.448 53.4556 280.845 53.4556C283.833 53.4556 286.209 55.6693 286.209 58.4952C286.209 59.8617 285.417 60.5682 284.037 60.5682L277.652 60.5682ZM282.913 58.6134C283.323 58.6134 283.501 58.3545 283.501 58.0245C283.501 56.8944 282.505 55.5279 280.793 55.5279C279.006 55.5279 277.831 56.8472 277.729 58.6134H282.913Z" fill="#231815" stroke="#231815" stroke-width="0.8" stroke-linecap="round" stroke-linejoin="round"/>
<path d="M292.003 64.8775C292.003 65.6311 291.442 66.1026 290.548 66.1026C289.628 66.1026 289.066 65.6551 289.066 64.8775V54.751C289.066 54.0446 289.679 53.5499 290.522 53.5499C291.339 53.5499 291.902 54.0446 291.902 54.751V56.5644C292.489 54.4921 293.689 53.4324 295.426 53.4324C296.499 53.4324 296.857 53.9031 296.857 54.7511C296.857 55.5518 296.397 56.0465 295.426 56.0465C293.587 56.0465 292.003 57.6241 292.003 60.5683V64.8775Z" fill="#231815" stroke="#231815" stroke-width="0.8" stroke-linecap="round" stroke-linejoin="round"/>
<path d="M302.422 60.5443C299.383 59.8618 298.361 58.8724 298.361 56.8234C298.361 54.7982 300.252 53.4324 303.01 53.4324C304.849 53.4324 306.229 53.8799 307.378 54.8214C307.659 55.0571 307.786 55.3161 307.786 55.7165C307.786 56.3287 307.25 56.8705 306.509 56.8705C306.203 56.8705 305.871 56.7762 305.641 56.5644C304.722 55.7165 304.134 55.5047 303.035 55.5047C301.631 55.5047 301.068 56.1408 301.068 56.8473C301.068 57.6713 301.401 58.0245 303.368 58.4249L304.287 58.6135C307.123 59.2017 308.22 60.2622 308.22 62.3816C308.22 64.6657 306.33 66.2201 303.215 66.2201C300.865 66.2201 299.358 65.5375 298.234 64.4307C297.978 64.195 297.901 63.9831 297.901 63.5828C297.901 62.9699 298.489 62.523 299.178 62.523C299.562 62.523 299.868 62.6406 300.149 62.9234C301.018 63.7707 301.835 64.1478 303.215 64.1478C304.722 64.1478 305.488 63.4413 305.488 62.4287C305.488 61.5569 305.002 61.1333 303.265 60.7329L302.422 60.5443Z" fill="#231815" stroke="#231815" stroke-width="0.8" stroke-linecap="round" stroke-linejoin="round"/>
</g>
<g clip-path="url(#clip1_1009_6025)">
<path d="M344.519 10.0405C344.519 8.56107 345.691 7.76075 347.196 7.76075C348.703 7.76075 349.79 8.56107 349.79 10.0405V26.7983C349.79 32.4372 352.133 34.757 356.651 34.757C361.252 34.757 363.637 32.0771 363.637 26.7983V10.0405C363.637 8.56107 364.766 7.76074 366.23 7.76074C367.694 7.76074 368.74 8.56107 368.74 10.0405V26.998C368.74 34.397 364.306 38.9164 356.608 38.9164C348.954 38.9164 344.519 34.9166 344.519 26.998L344.519 10.0405Z" fill="#231815" stroke="#231815" stroke-width="1.38425" stroke-linecap="round" stroke-linejoin="round"/>
<path d="M381.205 21.2788C381.916 18.8395 384.551 17.0793 387.145 17.0793C389.654 17.0793 391.161 17.5998 392.458 18.9188C393.838 20.3591 394.424 21.9989 394.424 25.7181V31.757C394.424 33.2374 394.549 34.9967 394.884 36.157C394.925 36.3567 394.925 36.6766 394.925 36.8362C394.925 37.8361 393.838 38.5963 392.206 38.5963C390.993 38.5963 390.324 38.116 390.031 37.1561C389.654 35.8371 389.571 34.1571 389.571 32.1572V26.358C389.571 23.359 389.236 22.3991 388.776 21.8786C388.232 21.2387 387.521 20.8787 386.476 20.8787C383.631 20.8787 381.372 23.2788 381.372 27.4381V36.5162C381.372 37.796 380.452 38.5964 378.988 38.5964C377.482 38.5964 376.561 37.8361 376.561 36.5162V19.319C376.561 18.1194 377.565 17.2799 378.945 17.2799C380.284 17.2799 381.205 18.1194 381.205 19.319L381.205 21.2788Z" fill="#231815" stroke="#231815" stroke-width="1.38425" stroke-linecap="round" stroke-linejoin="round"/>
<path d="M420.19 28.0379C420.19 31.6376 420.483 34.0367 420.776 35.5563C420.859 35.8762 420.985 36.3566 420.985 36.9965C420.985 37.9965 419.897 38.6364 418.392 38.6364C417.388 38.6364 416.802 38.1961 416.467 37.2363C416.258 36.6365 416.007 35.8762 415.84 35.0768C414.669 37.5161 412.535 38.7959 410.109 38.7959C404.295 38.7959 400.487 34.8371 400.487 27.9176C400.487 20.8385 404.713 17.0793 410.234 17.0793C412.117 17.0793 414.166 17.999 415.38 19.3992V9.56085C415.38 8.24094 416.3 7.48071 417.806 7.48071C419.311 7.48071 420.19 8.28104 420.19 9.56085V28.0379ZM415.38 23.5585C414.376 21.8786 412.451 20.7993 410.569 20.7993C407.599 20.7993 405.299 23.2787 405.299 27.9175C405.299 32.8371 407.39 35.1971 410.485 35.1971C413.037 35.1971 415.38 32.8772 415.38 29.3177V23.5585Z" fill="#231815" stroke="#231815" stroke-width="1.38425" stroke-linecap="round" stroke-linejoin="round"/>
<path d="M430.815 29.1974C430.981 32.9575 433.617 35.1169 436.336 35.1169C438.26 35.1169 439.682 34.7569 441.23 33.5573C441.607 33.2774 442.025 33.0769 442.527 33.0769C443.698 33.0769 444.535 33.9173 444.535 34.9164C444.535 35.5563 444.326 35.9966 443.949 36.3165C441.983 37.8762 439.264 38.7558 436.336 38.7558C430.27 38.7558 426.296 34.797 426.296 27.8774C426.296 21.2387 430.48 17.1194 436.043 17.1194C440.938 17.1194 444.828 20.8786 444.828 25.6779C444.828 27.9978 443.531 29.1974 441.272 29.1974H430.815ZM439.431 25.8784C440.1 25.8784 440.393 25.4381 440.393 24.8784C440.393 22.9587 438.762 20.6389 435.959 20.6389C433.031 20.6389 431.107 22.8785 430.94 25.8784H439.431Z" fill="#231815" stroke="#231815" stroke-width="1.38425" stroke-linecap="round" stroke-linejoin="round"/>
<path d="M455.579 36.5162C455.579 37.796 454.658 38.5963 453.194 38.5963C451.688 38.5963 450.768 37.8361 450.768 36.5162V19.319C450.768 18.1194 451.772 17.2799 453.152 17.2799C454.49 17.2799 455.411 18.1194 455.411 19.319V22.3991C456.373 18.8796 458.339 17.0793 461.183 17.0793C462.941 17.0793 463.526 17.8797 463.526 19.319C463.526 20.679 462.773 21.5186 461.183 21.5186C458.172 21.5186 455.579 24.1985 455.579 29.1974V36.5162Z" fill="#231815" stroke="#231815" stroke-width="1.38425" stroke-linecap="round" stroke-linejoin="round"/>
<path d="M473.9 29.1573C468.923 27.9978 467.249 26.3179 467.249 22.8385C467.249 19.3992 470.345 17.0793 474.862 17.0793C477.874 17.0793 480.133 17.8396 482.016 19.4393C482.476 19.8395 482.685 20.2789 482.685 20.9589C482.685 21.9989 481.807 22.9187 480.593 22.9187C480.092 22.9187 479.547 22.7583 479.171 22.3991C477.666 20.9589 476.703 20.5988 474.904 20.5988C472.603 20.5988 471.684 21.679 471.684 22.8786C471.684 24.2787 472.227 24.8785 475.448 25.5585L476.955 25.8785C481.597 26.8784 483.396 28.6778 483.396 32.2775C483.396 36.157 480.301 38.796 475.197 38.796C471.349 38.796 468.88 37.6365 467.04 35.7569C466.622 35.3567 466.496 34.9967 466.496 34.3167C466.496 33.2775 467.458 32.5173 468.587 32.5173C469.215 32.5173 469.717 32.7169 470.177 33.1973C471.6 34.6366 472.939 35.2765 475.197 35.2765C477.666 35.2765 478.92 34.0769 478.92 32.3568C478.92 30.8774 478.125 30.1573 475.28 29.4773L473.9 29.1573Z" fill="#231815" stroke="#231815" stroke-width="1.38425" stroke-linecap="round" stroke-linejoin="round"/>
<path d="M495.693 32.3178C495.693 34.2768 496.571 35.037 497.951 35.037C498.412 35.037 498.747 34.9969 499.5 34.8374C500.002 34.717 500.42 34.5967 500.838 34.5967C501.633 34.5967 502.303 35.2767 502.303 36.4772C502.303 37.2366 501.884 37.757 501.215 37.9968C500.044 38.3969 498.621 38.5966 497.282 38.5966C492.89 38.5966 490.882 36.7972 490.882 31.9578V21.3593H488.749C487.369 21.3593 486.658 20.5991 486.658 19.4797C486.658 18.3594 487.369 17.6001 488.749 17.6001H490.882V12.2001C490.882 10.8811 491.803 10.1208 493.309 10.1208C494.773 10.1208 495.693 10.9203 495.693 12.2001V17.6001H499.834C501.173 17.6001 501.926 18.3594 501.926 19.4797C501.926 20.5991 501.173 21.3593 499.834 21.3593H495.693V32.3178Z" fill="#231815" stroke="#231815" stroke-width="1.38425" stroke-linecap="round" stroke-linejoin="round"/>
<path d="M518.323 23.8786C518.323 21.9588 517.027 20.7592 514.851 20.7592C513.094 20.7592 511.672 21.3991 510.334 22.5185C509.999 22.7583 509.623 22.9588 509.162 22.9588C508.033 22.9588 506.945 22.0791 506.945 20.9589C506.945 20.5186 507.154 20.0792 507.489 19.7593C508.995 18.3592 511.922 17.0793 515.019 17.0793C519.996 17.0793 522.924 19.3992 522.924 23.8384V31.1171C522.924 33.8773 523.427 34.6767 524.389 35.2765C525.016 35.6767 525.267 36.0367 525.267 36.6766C525.267 37.8361 524.514 38.5964 523.468 38.5964C522.716 38.5964 522.046 38.4359 521.544 38.1962C520.415 37.6766 519.787 37.0768 519.327 35.9565C517.988 37.7568 516.19 38.796 512.969 38.796C508.326 38.796 505.69 36.3567 505.69 32.6768C505.69 29.0379 507.948 26.8784 511.421 25.9979C513.93 25.358 516.106 25.1985 518.323 25.1985L518.323 23.8786ZM518.323 28.398C516.482 28.398 514.767 28.5575 513.011 29.1573C511.379 29.7179 510.249 30.7179 510.249 32.3176C510.249 34.1571 511.253 35.3567 513.764 35.3567C516.231 35.3567 518.323 33.5573 518.323 30.8774L518.323 28.398Z" fill="#231815" stroke="#231815" stroke-width="1.38425" stroke-linecap="round" stroke-linejoin="round"/>
<path d="M535.265 21.2788C535.976 18.8395 538.611 17.0793 541.205 17.0793C543.714 17.0793 545.221 17.5998 546.518 18.9188C547.898 20.3591 548.484 21.9989 548.484 25.7181V31.757C548.484 33.2374 548.609 34.9967 548.944 36.157C548.985 36.3567 548.985 36.6766 548.985 36.8362C548.985 37.8361 547.898 38.5963 546.266 38.5963C545.053 38.5963 544.384 38.116 544.091 37.1561C543.714 35.8371 543.631 34.1571 543.631 32.1572V26.358C543.631 23.359 543.296 22.3991 542.836 21.8786C542.292 21.2387 541.581 20.8787 540.536 20.8787C537.691 20.8787 535.432 23.2788 535.432 27.4381V36.5162C535.432 37.796 534.512 38.5964 533.048 38.5964C531.542 38.5964 530.621 37.8361 530.621 36.5162V19.319C530.621 18.1194 531.625 17.2799 533.005 17.2799C534.344 17.2799 535.265 18.1194 535.265 19.319L535.265 21.2788Z" fill="#231815" stroke="#231815" stroke-width="1.38425" stroke-linecap="round" stroke-linejoin="round"/>
<path d="M574.251 28.0379C574.251 31.6376 574.544 34.0367 574.837 35.5563C574.92 35.8762 575.045 36.3566 575.045 36.9965C575.045 37.9965 573.958 38.6364 572.453 38.6364C571.449 38.6364 570.863 38.1961 570.528 37.2363C570.319 36.6365 570.068 35.8762 569.9 35.0768C568.73 37.5161 566.596 38.7959 564.17 38.7959C558.355 38.7959 554.548 34.8371 554.548 27.9176C554.548 20.8385 558.774 17.0793 564.295 17.0793C566.178 17.0793 568.227 17.999 569.441 19.3992V9.56085C569.441 8.24094 570.36 7.48071 571.867 7.48071C573.373 7.48071 574.251 8.28104 574.251 9.56085V28.0379ZM569.441 23.5585C568.437 21.8786 566.512 20.7993 564.63 20.7993C561.659 20.7993 559.359 23.2787 559.359 27.9175C559.359 32.8371 561.451 35.1971 564.546 35.1971C567.098 35.1971 569.441 32.8772 569.441 29.3177V23.5585Z" fill="#231815" stroke="#231815" stroke-width="1.38425" stroke-linecap="round" stroke-linejoin="round"/>
<path d="M587.217 10.8006C587.217 12.4405 585.837 13.7203 584.079 13.7203C582.322 13.7203 580.942 12.4405 580.942 10.8006C580.942 9.16073 582.322 7.84082 584.079 7.84082C585.837 7.84082 587.217 9.16073 587.217 10.8006ZM581.653 19.3591C581.653 18.0392 582.574 17.2798 584.079 17.2798C585.586 17.2798 586.464 18.0793 586.464 19.3591V36.5162C586.464 37.796 585.586 38.5963 584.079 38.5963C582.574 38.5963 581.653 37.8361 581.653 36.5162V19.3591Z" fill="#231815" stroke="#231815" stroke-width="1.38425" stroke-linecap="round" stroke-linejoin="round"/>
<path d="M598.553 21.2788C599.264 18.8395 601.899 17.0793 604.493 17.0793C607.002 17.0793 608.509 17.5998 609.806 18.9188C611.186 20.3591 611.772 21.9989 611.772 25.7181V31.757C611.772 33.2374 611.897 34.9967 612.232 36.157C612.273 36.3567 612.273 36.6766 612.273 36.8362C612.273 37.8361 611.186 38.5963 609.554 38.5963C608.341 38.5963 607.672 38.116 607.38 37.1561C607.002 35.8371 606.919 34.1571 606.919 32.1572V26.358C606.919 23.359 606.584 22.3991 606.124 21.8786C605.58 21.2387 604.869 20.8787 603.824 20.8787C600.979 20.8787 598.72 23.2788 598.72 27.4381V36.5162C598.72 37.796 597.8 38.5964 596.335 38.5964C594.83 38.5964 593.909 37.8361 593.909 36.5162V19.319C593.909 18.1194 594.913 17.2799 596.294 17.2799C597.632 17.2799 598.553 18.1194 598.553 19.319L598.553 21.2788Z" fill="#231815" stroke="#231815" stroke-width="1.38425" stroke-linecap="round" stroke-linejoin="round"/>
<path d="M630.595 34.1169C635.448 34.7167 637.539 36.5562 637.539 40.1158C637.539 43.8358 633.816 46.4346 627.333 46.4346C620.806 46.4346 617.125 44.235 617.125 40.5159C617.125 38.4759 618.464 36.9564 620.723 35.9564C619.384 35.3566 618.757 34.4369 618.757 32.9574C618.757 31.7569 619.928 30.4771 622.103 29.6376C620.012 28.5173 618.589 26.5976 618.589 23.8784C618.589 19.4392 622.396 17.0792 627.04 17.0792C628.545 17.0792 629.967 17.319 631.181 17.8395C632.603 16.1996 633.858 15.6399 636.326 15.6399C637.288 15.6399 637.999 16.3992 637.999 17.5997C637.999 18.7191 637.288 19.5194 636.326 19.5194C635.029 19.5194 634.527 19.5987 634.067 19.8394C634.988 20.9187 635.489 22.2787 635.489 23.8784C635.489 28.3177 632.018 30.7177 627.04 30.7177C626.329 30.7177 625.618 30.6776 624.948 30.5573C623.525 31.0769 623.107 31.7569 623.107 32.2774C623.107 32.8772 623.61 33.2774 625.282 33.477L630.595 34.1169ZM624.822 37.1961C624.529 37.156 624.195 37.0767 623.86 36.9965C622.187 37.836 621.476 38.836 621.476 40.3163C621.476 42.1157 623.567 43.2752 627.29 43.2752C631.181 43.2752 633.063 42.1157 633.063 40.2361C633.063 38.836 632.185 38.0766 629.173 37.7166L624.822 37.1961ZM622.982 23.8784C622.982 26.1582 624.655 27.5182 627.04 27.5182C629.382 27.5182 631.014 26.1582 631.014 23.9185C631.014 21.7591 629.382 20.3991 627.04 20.3991C624.697 20.3991 622.982 21.6789 622.982 23.8784Z" fill="#231815" stroke="#231815" stroke-width="1.38425" stroke-linecap="round" stroke-linejoin="round"/>
</g>
<g clip-path="url(#clip2_1009_6025)">
<path d="M384.658 56.9767C386.644 58.3755 387.38 59.4953 387.38 61.174C387.38 63.4126 385.32 65.2318 383.038 65.2318C381.714 65.2318 380.683 64.9519 379.579 63.9023C376.267 60.8941 373.029 59.7752 369.129 59.7752C360.224 59.7752 353.821 67.33 353.821 79.9229C353.821 92.5851 360.37 100.071 369.129 100.071C373.766 100.071 377.298 99.021 380.977 95.9426C381.86 95.173 382.965 94.7535 384.069 94.7535C386.35 94.7535 388.263 96.2927 388.263 98.3909C388.263 99.7907 387.748 100.7 386.644 101.609C381.714 105.667 375.826 107.416 369.129 107.416C355.22 107.416 344.474 97.6915 344.474 79.9229C344.474 62.2236 355.293 52.4292 369.129 52.4292C375.238 52.4292 380.021 53.828 384.658 56.9767Z" fill="#231815" stroke="#231815" stroke-width="1.21201" stroke-linecap="round" stroke-linejoin="round"/>
<path d="M393.192 88.1076C393.192 76.2844 400.551 69.2192 410.633 69.2192C420.716 69.2192 428.076 76.2844 428.076 88.1076C428.076 100 420.864 107.206 410.633 107.206C400.478 107.206 393.192 100 393.192 88.1076ZM419.613 88.1076C419.613 79.992 416.448 75.585 410.633 75.585C404.894 75.585 401.656 79.992 401.656 88.1076C401.656 96.2926 404.894 100.839 410.633 100.839C416.448 100.839 419.613 96.2926 419.613 88.1076Z" fill="#231815" stroke="#231815" stroke-width="1.21201" stroke-linecap="round" stroke-linejoin="round"/>
<path d="M436.611 73.1366C436.611 71.0375 438.377 69.5685 440.806 69.5685C443.161 69.5685 444.78 71.0375 444.78 73.1366V75.0251C446.988 71.5974 451.11 69.2192 455.157 69.2192C464.651 69.2192 471.274 75.9351 471.274 87.6873C471.274 99.8598 463.547 107.206 453.391 107.206C450.594 107.206 447.135 105.527 445.074 103.218V116.93C445.074 119.169 443.529 120.567 440.88 120.567C438.23 120.567 436.611 119.239 436.611 116.93L436.611 73.1366ZM445.074 96.2926C446.767 99.0209 449.932 100.909 453.317 100.909C458.689 100.909 462.811 96.1521 462.811 87.9672C462.811 79.8525 459.425 75.7245 454.421 75.7245C449.343 75.7245 445.074 79.992 445.074 85.9383L445.074 96.2926Z" fill="#231815" stroke="#231815" stroke-width="1.21201" stroke-linecap="round" stroke-linejoin="round"/>
<path d="M476.497 75.5854C476.056 74.5358 475.835 73.6969 475.835 72.9966C475.835 71.0379 477.822 69.5688 480.472 69.5688C482.458 69.5688 483.562 70.4087 484.151 72.0874L487.831 81.9511C489.671 86.9882 491.216 91.8157 492.836 96.7826H493.35C495.117 91.6059 496.957 86.7083 498.87 81.4614L502.256 72.0874C502.771 70.5482 503.874 69.5688 505.714 69.5688C508.364 69.5688 510.056 71.0379 510.056 72.9273C510.056 73.5564 509.983 73.9759 509.688 74.7455L495.631 108.745C492.173 117.14 487.977 120.568 482.017 120.568C480.912 120.568 479.735 120.498 478.705 120.428C476.939 120.219 475.54 119.029 475.54 116.721C475.54 114.762 477.012 113.572 478.705 113.572C479.662 113.572 480.692 113.712 482.09 113.712C484.372 113.712 486.211 112.522 488.714 106.297L489.082 105.387L476.497 75.5854Z" fill="#231815" stroke="#231815" stroke-width="1.21201" stroke-linecap="round" stroke-linejoin="round"/>
<path d="M525.436 103.218C525.436 105.457 523.816 106.856 521.24 106.856C518.591 106.856 516.972 105.527 516.972 103.218V73.1366C516.972 71.0375 518.738 69.5685 521.166 69.5685C523.521 69.5685 525.141 71.0375 525.141 73.1366V78.523C526.834 72.367 530.292 69.2192 535.297 69.2192C538.389 69.2192 539.418 70.618 539.418 73.1366C539.418 75.5148 538.094 76.9838 535.297 76.9838C529.998 76.9838 525.436 81.6717 525.436 90.4156V103.218Z" fill="#231815" stroke="#231815" stroke-width="1.21201" stroke-linecap="round" stroke-linejoin="round"/>
<path d="M555.682 58.236C555.682 61.1038 553.254 63.3424 550.162 63.3424C547.072 63.3424 544.643 61.1038 544.643 58.236C544.643 55.3673 547.072 53.0593 550.162 53.0593C553.254 53.0593 555.682 55.3673 555.682 58.236ZM545.894 73.207C545.894 70.8982 547.512 69.5687 550.162 69.5687C552.811 69.5687 554.357 70.9684 554.357 73.207V103.218C554.357 105.457 552.811 106.856 550.162 106.856C547.512 106.856 545.894 105.527 545.894 103.218V73.207Z" fill="#231815" stroke="#231815" stroke-width="1.21201" stroke-linecap="round" stroke-linejoin="round"/>
<path d="M585.339 99.0211C593.876 100.071 597.557 103.289 597.557 109.515C597.557 116.02 591.007 120.568 579.6 120.568C568.119 120.568 561.643 116.72 561.643 110.214C561.643 106.646 563.998 103.988 567.971 102.239C565.616 101.19 564.512 99.581 564.512 96.9922C564.512 94.8931 566.573 92.6545 570.4 91.1855C566.72 89.2268 564.218 85.8693 564.218 81.1121C564.218 73.3466 570.915 69.2195 579.084 69.2195C581.734 69.2195 584.236 69.639 586.371 70.5481C588.872 67.6803 591.081 66.7009 595.422 66.7009C597.115 66.7009 598.366 68.0295 598.366 70.1286C598.366 72.0873 597.115 73.4861 595.422 73.4861C593.141 73.4861 592.258 73.6266 591.448 74.046C593.067 75.9354 593.95 78.3136 593.95 81.1121C593.95 88.8775 587.842 93.0749 579.084 93.0749C577.834 93.0749 576.582 93.0046 575.404 92.7949C572.902 93.704 572.166 94.8931 572.166 95.8032C572.166 96.8527 573.049 97.5521 575.993 97.9014L585.339 99.0211ZM575.184 104.408C574.669 104.337 574.08 104.198 573.491 104.058C570.547 105.527 569.297 107.276 569.297 109.864C569.297 113.013 572.975 115.041 579.526 115.041C586.371 115.041 589.682 113.013 589.682 109.725C589.682 107.276 588.137 105.947 582.838 105.317L575.184 104.408ZM571.946 81.1121C571.946 85.0997 574.89 87.4778 579.084 87.4778C583.206 87.4778 586.076 85.0997 586.076 81.1814C586.076 77.4044 583.206 75.0254 579.084 75.0254C574.963 75.0254 571.946 77.264 571.946 81.1121Z" fill="#231815" stroke="#231815" stroke-width="1.21201" stroke-linecap="round" stroke-linejoin="round"/>
<path d="M627.654 85.4488C627.654 80.2019 627.065 78.5232 626.256 77.6141C625.299 76.4943 624.048 75.8651 622.209 75.8651C617.205 75.8651 613.229 80.0624 613.229 87.3382V103.218C613.229 105.457 611.611 106.856 609.035 106.856C606.386 106.856 604.767 105.527 604.767 103.218V56.0666C604.767 53.7587 606.386 52.4292 609.035 52.4292C611.684 52.4292 613.229 53.828 613.229 56.0666V75.7247C614.775 71.8775 619.117 69.2194 623.387 69.2194C627.802 69.2194 630.452 70.1285 632.733 72.4374C635.162 74.956 636.191 77.8238 636.191 84.33V94.893C636.191 97.4818 636.412 100.56 637.001 102.588C637.074 102.938 637.074 103.498 637.074 103.778C637.074 105.527 635.162 106.856 632.291 106.856C630.157 106.856 628.98 106.017 628.464 104.337C627.802 102.029 627.654 99.0903 627.654 95.5933V85.4488Z" fill="#231815" stroke="#231815" stroke-width="1.21201" stroke-linecap="round" stroke-linejoin="round"/>
<path d="M658.489 95.8723C658.489 99.301 660.034 100.63 662.463 100.63C663.272 100.63 663.861 100.56 665.186 100.28C666.07 100.071 666.805 99.8599 667.542 99.8599C668.939 99.8599 670.117 101.05 670.117 103.148C670.117 104.478 669.381 105.387 668.203 105.807C666.143 106.507 663.641 106.856 661.286 106.856C653.558 106.856 650.025 103.708 650.025 95.2432V76.704H646.272C643.843 76.704 642.592 75.3754 642.592 73.4167C642.592 71.458 643.843 70.1285 646.272 70.1285H650.025V60.6843C650.025 58.3755 651.645 57.0469 654.294 57.0469C656.87 57.0469 658.489 58.4457 658.489 60.6843V70.1285H665.775C668.13 70.1285 669.454 71.458 669.454 73.4167C669.454 75.3754 668.13 76.704 665.775 76.704H658.489V95.8723Z" fill="#231815" stroke="#231815" stroke-width="1.21201" stroke-linecap="round" stroke-linejoin="round"/>
<path d="M700.312 72.845C700.312 74.8527 698.693 76.4196 696.632 76.4196C694.572 76.4196 692.953 74.8527 692.953 72.845C692.953 70.8374 694.572 69.2214 696.632 69.2214C698.693 69.2214 700.312 70.8374 700.312 72.845ZM693.787 83.324C693.787 81.7081 694.866 80.7777 696.632 80.7777C698.399 80.7777 699.429 81.757 699.429 83.324V104.331C699.429 105.898 698.399 106.877 696.632 106.877C694.866 106.877 693.787 105.947 693.787 104.331V83.324Z" fill="#231815" stroke="#231815" stroke-width="1.21201" stroke-linecap="round" stroke-linejoin="round"/>
<path d="M712.135 85.6743C712.969 82.6873 716.06 80.5327 719.102 80.5327C722.046 80.5327 723.812 81.1693 725.333 82.7852C726.953 84.548 727.639 86.5557 727.639 91.1096V98.5037C727.639 100.315 727.787 102.47 728.179 103.89C728.228 104.135 728.228 104.527 728.228 104.723C728.228 105.947 726.953 106.877 725.039 106.877C723.616 106.877 722.831 106.289 722.488 105.114C722.046 103.498 721.948 101.442 721.948 98.9934V91.8931C721.948 88.2206 721.556 87.0454 721.016 86.4088C720.378 85.6253 719.544 85.1846 718.317 85.1846C714.981 85.1846 712.332 88.1226 712.332 93.2152V104.331C712.332 105.898 711.252 106.877 709.535 106.877C707.769 106.877 706.689 105.947 706.689 104.331V83.2749C706.689 81.8059 707.867 80.7775 709.486 80.7775C711.056 80.7775 712.135 81.8058 712.135 83.2749V85.6743Z" fill="#231815" stroke="#231815" stroke-width="1.21201" stroke-linecap="round" stroke-linejoin="round"/>
<path d="M785.164 56.9767C787.15 58.3755 787.886 59.4953 787.886 61.174C787.886 63.4126 785.826 65.2318 783.544 65.2318C782.22 65.2318 781.189 64.9519 780.085 63.9023C776.773 60.894 773.535 59.7752 769.635 59.7752C760.73 59.7752 754.327 67.33 754.327 79.9229C754.327 92.5851 760.876 100.071 769.635 100.071C774.272 100.071 777.804 99.021 781.483 95.9426C782.366 95.173 783.471 94.7535 784.575 94.7535C786.856 94.7535 788.769 96.2927 788.769 98.3909C788.769 99.7907 788.254 100.7 787.15 101.609C782.22 105.667 776.332 107.416 769.635 107.416C755.726 107.416 744.98 97.6915 744.98 79.9229C744.98 62.2236 755.799 52.4292 769.635 52.4292C775.744 52.4292 780.527 53.828 785.164 56.9767Z" fill="#231815" stroke="#231815" stroke-width="1.21201" stroke-linecap="round" stroke-linejoin="round"/>
<path d="M796.421 56.0666C796.421 53.7587 798.041 52.4292 800.69 52.4292C803.339 52.4292 804.884 53.828 804.884 56.0666V93.7742C804.884 99.1606 805.62 100.14 807.975 100.14C808.27 100.14 808.564 100.071 808.858 100.071C810.404 100.071 811.508 101.26 811.508 103.218C811.508 105.177 810.478 106.576 808.933 106.716C808.344 106.787 807.461 106.856 806.651 106.856C800.247 106.856 796.421 104.058 796.421 95.4529V56.0666Z" fill="#231815" stroke="#231815" stroke-width="1.21201" stroke-linecap="round" stroke-linejoin="round"/>
<path d="M837.118 81.1118C837.118 77.7534 834.836 75.6552 831.009 75.6552C827.919 75.6552 825.416 76.774 823.061 78.7327C822.472 79.1531 821.81 79.5024 821 79.5024C819.014 79.5024 817.1 77.9631 817.1 76.0044C817.1 75.2348 817.468 74.4661 818.056 73.9062C820.706 71.4579 825.858 69.2192 831.304 69.2192C840.062 69.2192 845.213 73.2761 845.213 81.0416V93.774C845.213 98.6005 846.097 100 847.789 101.05C848.893 101.749 849.335 102.378 849.335 103.498C849.335 105.527 848.01 106.856 846.171 106.856C844.845 106.856 843.668 106.576 842.784 106.156C840.798 105.247 839.694 104.198 838.884 102.239C836.529 105.387 833.364 107.206 827.698 107.206C819.528 107.206 814.892 102.938 814.892 96.5023C814.892 90.1356 818.866 86.3587 824.975 84.8195C829.391 83.6997 833.218 83.4207 837.118 83.4207V81.1118ZM837.118 89.0168C833.88 89.0168 830.863 89.2967 827.771 90.3463C824.901 91.3256 822.915 93.0746 822.915 95.8722C822.915 99.0902 824.681 101.189 829.097 101.189C833.438 101.189 837.118 98.0415 837.118 93.3545V89.0168Z" fill="#231815" stroke="#231815" stroke-width="1.21201" stroke-linecap="round" stroke-linejoin="round"/>
<path d="M866.038 90.3463C857.281 88.3174 854.337 85.3793 854.337 79.2926C854.337 73.2761 859.783 69.2192 867.732 69.2192C873.03 69.2192 877.005 70.5478 880.317 73.3463C881.126 74.0457 881.494 74.8154 881.494 76.0044C881.494 77.8236 879.948 79.4331 877.814 79.4331C876.931 79.4331 875.974 79.1531 875.312 78.523C872.663 76.0044 870.97 75.3752 867.805 75.3752C863.757 75.3752 862.138 77.2637 862.138 79.3628C862.138 81.8112 863.095 82.8608 868.762 84.0498L871.411 84.6097C879.58 86.3587 882.745 89.5064 882.745 95.8029C882.745 102.588 877.299 107.206 868.32 107.206C861.55 107.206 857.207 105.177 853.969 101.889C853.234 101.189 853.013 100.56 853.013 99.3701C853.013 97.5518 854.706 96.2223 856.692 96.2223C857.796 96.2223 858.679 96.5725 859.489 97.4114C861.991 99.93 864.346 101.05 868.32 101.05C872.663 101.05 874.87 98.9506 874.87 95.9424C874.87 93.3545 873.472 92.0952 868.468 90.9052L866.038 90.3463Z" fill="#231815" stroke="#231815" stroke-width="1.21201" stroke-linecap="round" stroke-linejoin="round"/>
<path d="M900.185 90.3463C891.427 88.3174 888.484 85.3793 888.484 79.2926C888.484 73.2761 893.93 69.2192 901.878 69.2192C907.177 69.2192 911.151 70.5478 914.463 73.3463C915.272 74.0457 915.64 74.8154 915.64 76.0044C915.64 77.8236 914.095 79.4331 911.96 79.4331C911.077 79.4331 910.12 79.1531 909.459 78.523C906.809 76.0044 905.116 75.3752 901.951 75.3752C897.904 75.3752 896.285 77.2637 896.285 79.3628C896.285 81.8112 897.241 82.8608 902.908 84.0498L905.558 84.6097C913.726 86.3587 916.891 89.5064 916.891 95.8029C916.891 102.588 911.445 107.206 902.467 107.206C895.696 107.206 891.353 105.177 888.115 101.889C887.38 101.189 887.159 100.56 887.159 99.3701C887.159 97.5518 888.852 96.2223 890.839 96.2223C891.942 96.2223 892.825 96.5725 893.635 97.4114C896.137 99.93 898.492 101.05 902.467 101.05C906.809 101.05 909.016 98.9506 909.016 95.9424C909.016 93.3545 907.618 92.0952 902.614 90.9052L900.185 90.3463Z" fill="#231815" stroke="#231815" stroke-width="1.21201" stroke-linecap="round" stroke-linejoin="round"/>
<path d="M930.431 90.4159C930.725 96.9922 935.362 100.77 940.145 100.77C943.531 100.77 946.033 100.14 948.755 98.0418C949.418 97.5521 950.154 97.202 951.037 97.202C953.098 97.202 954.57 98.671 954.57 100.42C954.57 101.54 954.202 102.309 953.54 102.868C950.081 105.597 945.297 107.136 940.145 107.136C929.474 107.136 922.482 100.21 922.482 88.1079C922.482 76.4944 929.842 69.2888 939.63 69.2888C948.241 69.2888 955.085 75.8652 955.085 84.2599C955.085 88.3177 952.804 90.4159 948.829 90.4159L930.431 90.4159ZM945.591 84.61C946.769 84.61 947.283 83.8404 947.283 82.8611C947.283 79.5026 944.414 75.4458 939.483 75.4458C934.331 75.4458 930.946 79.3631 930.652 84.61H945.591Z" fill="#231815" stroke="#231815" stroke-width="1.21201" stroke-linecap="round" stroke-linejoin="round"/>
<path d="M972.82 90.3463C964.062 88.3174 961.118 85.3793 961.118 79.2926C961.118 73.2761 966.564 69.2192 974.513 69.2192C979.812 69.2192 983.786 70.5478 987.097 73.3463C987.907 74.0457 988.274 74.8154 988.274 76.0044C988.274 77.8236 986.729 79.4331 984.596 79.4331C983.712 79.4331 982.755 79.1531 982.092 78.523C979.443 76.0044 977.751 75.3752 974.587 75.3752C970.539 75.3752 968.919 77.2637 968.919 79.3628C968.919 81.8112 969.877 82.8608 975.543 84.0498L978.192 84.6097C986.362 86.3587 989.526 89.5064 989.526 95.8029C989.526 102.588 984.08 107.206 975.101 107.206C968.331 107.206 963.989 105.177 960.751 101.889C960.014 101.189 959.794 100.56 959.794 99.3701C959.794 97.5518 961.486 96.2223 963.473 96.2223C964.578 96.2223 965.461 96.5725 966.27 97.4114C968.772 99.93 971.127 101.05 975.101 101.05C979.443 101.05 981.652 98.9506 981.652 95.9424C981.652 93.3545 980.253 92.0952 975.249 90.9052L972.82 90.3463Z" fill="#231815" stroke="#231815" stroke-width="1.21201" stroke-linecap="round" stroke-linejoin="round"/>
</g>
<defs>
<clipPath id="clip0_1009_6025">
<rect width="292" height="19" fill="white" transform="translate(16.5093 47.5)"/>
</clipPath>
<clipPath id="clip1_1009_6025">
<rect width="294.518" height="39.9962" fill="white" transform="translate(344 6.95972)"/>
</clipPath>
<clipPath id="clip2_1009_6025">
<rect width="646" height="69.0844" fill="white" transform="translate(344 51.9561)"/>
</clipPath>
</defs>
</svg>
