<svg width="26" height="26" viewBox="0 0 26 26" fill="none" xmlns="http://www.w3.org/2000/svg">
<rect width="26" height="26" rx="8" fill="#FFEDD5"/>
<path fill-rule="evenodd" clip-rule="evenodd" d="M10.75 5.5C7.43629 5.5 4.75 8.23629 4.75 11.55C4.75 14.6953 7.17023 17.3204 10.25 17.5791V21.4501L13.4001 17.6H15.25C18.5637 17.6 21.25 14.8637 21.25 11.55C21.25 8.23629 18.5637 5.5 15.25 5.5H10.75Z" fill="white"/>
<path d="M10.25 17.5791H10.75C10.75 17.3192 10.5509 17.1026 10.2918 17.0808L10.25 17.5791ZM10.25 21.4501H9.75C9.75 21.6614 9.88287 21.8499 10.0819 21.921C10.2809 21.992 10.5032 21.9303 10.637 21.7667L10.25 21.4501ZM13.4001 17.6V17.1C13.2501 17.1 13.108 17.1673 13.0131 17.2834L13.4001 17.6ZM5.25 11.55C5.25 8.50702 7.71781 6 10.75 6V5C7.15477 5 4.25 7.96556 4.25 11.55H5.25ZM10.2918 17.0808C7.47322 16.8441 5.25 14.4376 5.25 11.55H4.25C4.25 14.9531 6.86725 17.7968 10.2082 18.0773L10.2918 17.0808ZM10.75 21.4501V17.5791H9.75V21.4501H10.75ZM13.0131 17.2834L9.86302 21.1335L10.637 21.7667L13.787 17.9166L13.0131 17.2834ZM15.25 17.1H13.4001V18.1H15.25V17.1ZM20.75 11.55C20.75 14.593 18.2822 17.1 15.25 17.1V18.1C18.8452 18.1 21.75 15.1344 21.75 11.55H20.75ZM15.25 6C18.2822 6 20.75 8.50702 20.75 11.55H21.75C21.75 7.96556 18.8452 5 15.25 5V6ZM10.75 6H15.25V5H10.75V6Z" fill="#334155"/>
<line x1="9.75" y1="10.25" x2="17" y2="10.25" stroke="#334155" stroke-linecap="round"/>
<line x1="9.75" y1="12.5" x2="17" y2="12.5" stroke="#334155" stroke-linecap="round"/>
</svg>
