<svg width="16" height="16" viewBox="0 0 16 16" fill="none" xmlns="http://www.w3.org/2000/svg">
<g clip-path="url(#clip0_302_3375)">
<path d="M8.73868 9.62776C8.73868 9.91034 8.55081 10.0515 8.26417 10.0515C7.97753 10.0515 7.78965 9.88206 7.78965 9.61843V9.42072C7.78965 8.68642 7.99715 8.24403 8.76828 7.67917C9.3615 7.24612 9.50016 6.95421 9.50016 6.48353C9.50016 5.89038 9.07486 5.56114 8.41247 5.56114C7.83887 5.56114 7.36435 5.80581 6.96898 6.36134C6.87986 6.48353 6.75118 6.54944 6.59323 6.54944C6.28664 6.54944 6 6.32343 6 6.06943C6 5.96591 6.04922 5.84343 6.13833 5.73057C6.6328 5.06218 7.51266 4.66675 8.46202 4.66675C9.79678 4.66675 10.6667 5.34447 10.6667 6.4742C10.6667 7.26507 10.39 7.74507 9.58895 8.28165C8.88699 8.75232 8.73869 9.05356 8.73869 9.48662L8.73868 9.62776ZM9.0353 11.3034C9.0353 11.6988 8.70909 12.0001 8.28379 12.0001C7.85882 12.0001 7.53229 11.6988 7.53229 11.3034C7.53229 10.908 7.85882 10.5974 8.28379 10.5974C8.70909 10.5974 9.0353 10.908 9.0353 11.3034Z" fill="#F97316"/>
</g>
<rect x="0.5" y="0.5" width="15" height="15" rx="7.5" stroke="#F97316"/>
<defs>
<clipPath id="clip0_302_3375">
<rect width="16" height="16" rx="8" fill="white"/>
</clipPath>
</defs>
</svg>
