<svg width="997" height="128" viewBox="0 0 997 128" fill="none" xmlns="http://www.w3.org/2000/svg">
<path d="M470.101 35.8211H488.6V38.2661C488.6 40.7093 491.213 41.9874 493.795 41.9874C496.375 41.9874 498.988 40.7093 498.988 38.2661V35.8211H516.228V38.0877C516.228 40.5308 518.84 41.8089 521.421 41.8089C524.002 41.8089 526.616 40.5308 526.616 38.0877V35.8211H545.584C548.187 35.8211 549.373 33.7069 549.373 31.7426C549.373 29.7783 548.187 27.6642 545.584 27.6642H526.616V24.1465C526.616 21.5281 523.923 20.3357 521.421 20.3357C518.919 20.3357 516.228 21.5281 516.228 24.1465V27.6642H498.988V24.1465C498.988 21.5281 496.296 20.3357 493.795 20.3357C491.293 20.3357 488.6 21.5281 488.6 24.1465V27.6642H470.101C467.674 27.6642 466.404 29.7158 466.404 31.7426C466.404 33.7695 467.674 35.8211 470.101 35.8211Z" fill="#231815"/>
<path d="M547.363 57.6913H531.564C535.325 55.1179 538.787 52.4557 541.874 49.7623C543.059 48.6316 543.66 47.4097 543.66 46.131C543.66 43.6354 541.414 41.6054 538.654 41.6054C537.24 41.6054 535.864 42.1767 534.773 43.2182C529.674 48.2601 523.294 53.1289 515.805 57.6913H510.508V52.7116H521.421C523.725 52.7116 524.931 50.7048 524.931 48.7224C524.931 46.7368 523.845 44.7332 521.421 44.7332H510.508V42.1093C510.508 39.4903 507.895 38.1201 505.313 38.1201C502.731 38.1201 500.118 39.4903 500.118 42.1093V44.7332H479.84C477.537 44.7332 476.332 46.74 476.332 48.7224C476.332 50.6565 477.561 52.7116 479.84 52.7116H500.118V57.6913H468.508C466.098 57.6913 465 59.8054 465 61.7697C465 63.7347 466.098 65.8488 468.508 65.8488H500.81C490.574 70.7796 479.809 74.952 468.792 78.2589C466.534 78.9212 465.187 80.542 465.187 82.5926C465.187 84.8167 466.92 87.1175 469.82 87.1175C470.334 87.1175 470.934 87.0172 471.503 86.8362C477.675 85.0085 484.28 82.5031 488.881 80.6601V94.9252C488.881 100.666 492.366 103.114 500.537 103.114H527.603C535.773 103.114 539.259 100.666 539.259 94.9252V79.8224C539.259 74.082 535.773 71.6325 527.603 71.6325H507.369C510.891 69.8924 514.549 67.9928 518.506 65.8488H547.363C549.728 65.8488 550.966 63.7969 550.966 61.7697C550.966 59.7432 549.728 57.6913 547.363 57.6913ZM528.682 91.0499V93.6741C528.682 94.9144 528.49 95.3151 526.198 95.3151H501.941C499.75 95.3151 499.457 94.9855 499.457 93.6741V91.0499H528.682ZM528.682 83.7866H499.457V80.8944C499.457 79.6541 499.65 79.2534 501.941 79.2534H526.198C528.49 79.2534 528.682 79.6541 528.682 80.8944V83.7866Z" fill="#231815"/>
<path d="M578.034 48.6495C581.968 41.4503 585.184 34.0679 587.103 27.8282C587.296 27.2748 587.402 26.6972 587.402 26.2021C587.402 23.1458 584.379 21.3193 581.457 21.3193C578.925 21.3193 576.905 22.707 576.185 24.9434C572.29 37.3915 565.256 50.7825 558.26 59.0632C557.329 60.2184 556.877 61.3673 556.877 62.5746C556.877 65.2705 559.48 67.6355 562.447 67.6355C564.072 67.6355 565.623 66.8651 566.813 65.4673C568.259 63.7799 569.735 61.8664 571.207 59.7694V100.913C571.207 103.653 574.044 104.902 576.681 104.902C579.355 104.902 582.062 103.532 582.062 100.913V52.7442C582.062 50.2604 580.06 49.0223 578.034 48.6495Z" fill="#231815"/>
<path d="M640.646 38.2988H607.035C608.572 34.4042 609.776 30.7233 610.62 27.3412L610.661 27.1532C610.74 26.7862 610.815 26.4397 610.815 26.0231C610.815 23.0837 607.946 21.4976 605.245 21.4976C602.673 21.4976 600.686 22.9249 600.061 25.2248C597.102 36.4396 591.933 47.6049 585.875 55.8641C585.102 56.9698 584.693 58.1155 584.693 59.1779C584.693 61.7722 587.022 63.8826 589.886 63.8826C591.767 63.8826 593.49 62.9471 594.736 61.2496C597.751 57.2028 600.503 52.6481 602.918 47.7069H608.198V100.555C608.198 103.35 610.859 104.812 613.487 104.812C616.034 104.812 618.775 103.48 618.775 100.555V83.0962H635.682C638.416 83.0962 639.847 80.775 639.847 78.4817C639.847 76.1885 638.416 73.8666 635.682 73.8666H618.775V65.3121H635.308C638.042 65.3121 639.472 62.9903 639.472 60.697C639.472 58.4038 638.042 56.0826 635.308 56.0826H618.775V47.7069H640.646C643.572 47.7069 644.904 45.2685 644.904 43.0029C644.904 40.6651 643.442 38.2988 640.646 38.2988Z" fill="#231815"/>
<path d="M735.521 43.1245H709.275C709.398 42.7451 709.523 42.3628 709.649 41.9782C710.134 40.494 710.635 38.9619 711.046 37.4301H728.966C731.504 37.4301 732.661 35.2693 732.661 33.2618C732.661 31.1908 731.392 29.0941 728.966 29.0941H700.417L700.541 28.7883C700.909 27.8903 701.256 27.0418 701.543 26.1496C701.729 25.7079 701.849 25.1322 701.849 24.6825C701.849 22.0177 699.304 20.4253 696.843 20.4253C694.746 20.4253 693.057 21.5726 692.323 23.4987C690.654 28.0884 688.281 32.6518 685.815 36.0136C685.087 36.9681 684.717 37.9363 684.717 38.8921C684.717 41.4663 687.268 43.0598 689.631 43.0598C690.862 43.0598 692.621 42.6647 694.024 40.7665C694.272 40.3823 694.531 39.9981 694.789 39.6141C695.268 38.8997 695.764 38.1624 696.188 37.4298H700.524C699.942 39.33 699.336 41.2784 698.591 43.1245H685.417C684.411 43.1245 683.525 43.5072 682.881 44.1988C682.616 42.1837 681.311 40.3543 679.048 40.3543H673.567V24.4145C673.567 21.7964 670.971 20.6041 668.559 20.6041C666.103 20.6041 663.459 21.7964 663.459 24.4145V40.3543H655.073C652.586 40.3543 651.284 42.6758 651.284 44.9691C651.284 47.2621 652.618 49.5833 655.167 49.5833H662.426C659.51 60.6723 655.654 69.9432 650.959 77.1462C650.35 78.1147 650.067 78.9651 650.067 79.8218C650.067 82.331 652.409 84.0794 654.512 84.0794C656.07 84.0794 657.432 83.2627 658.34 81.7887C660.255 78.8984 662.096 75.3325 663.712 71.3969L663.459 87.8651V100.734C663.459 103.597 666.103 104.902 668.559 104.902C670.971 104.902 673.567 103.597 673.567 100.734V64.3329C674.408 65.3084 675.248 66.3423 676.07 67.4124C676.916 68.5771 678.206 69.2446 679.61 69.2446C681.793 69.2446 684.149 67.6512 684.149 65.0766C684.149 64.3558 683.94 63.2539 682.948 62.0949C680.025 58.656 676.784 55.6152 673.567 53.2915V49.5833H679.048C680.181 49.5833 681.089 49.1654 681.803 48.3099C682.119 50.0812 683.347 51.639 685.417 51.639H694.814C691.143 58.7811 686.46 65.0633 680.501 70.8386C679.447 71.9354 678.912 73.0938 678.912 74.2814C678.912 76.6921 681.208 78.807 683.824 78.807C685.135 78.807 686.443 78.2195 687.607 77.1088C688.346 76.4025 689.043 75.6817 689.682 75.0086V100.913C689.682 103.592 692.277 104.812 694.688 104.812C697.1 104.812 699.695 103.592 699.695 100.913V100.344H734.209C736.549 100.344 737.812 98.2886 737.812 96.3547C737.812 94.4336 736.685 92.3658 734.209 92.3658H718.801V88.5471H729.995C732.175 88.5471 733.316 86.6755 733.316 84.8268C733.316 82.9775 732.175 81.1053 729.995 81.1053H718.801V77.4663H729.995C732.175 77.4663 733.316 75.5941 733.316 73.7447C733.316 71.8954 732.175 70.0238 729.995 70.0238H718.801V66.2953H732.899C735.31 66.2953 736.408 64.2738 736.408 62.3953C736.408 60.5174 735.31 58.4959 732.899 58.4959H719.807C719.899 58.2609 719.984 58.0247 720.071 57.7802C720.164 57.5217 720.259 57.255 720.366 56.9813C720.57 56.4986 720.673 56.0051 720.673 55.5142C720.673 53.1854 718.27 51.7933 715.947 51.7933C713.741 51.7933 712.05 52.9117 711.422 54.7953C711.193 55.5587 710.898 56.3449 710.585 57.1781C710.421 57.6144 710.256 58.0552 710.099 58.4959H702.174L702.406 58.0857C703.629 55.9143 704.787 53.8605 705.765 51.639H735.521C737.948 51.639 739.218 49.4975 739.218 47.3818C739.218 45.2663 737.948 43.1245 735.521 43.1245ZM699.695 81.1053V77.4663H708.973V81.1053H699.695ZM708.973 70.0238H699.695V67.8468C699.695 66.818 699.964 66.2953 701.432 66.2953H708.973V70.0238ZM708.973 88.5471V92.3659H699.695V88.5471H708.973Z" fill="#231815"/>
<path d="M789.064 89.9157C788.809 89.9157 788.52 89.9157 788.163 89.9868C784.451 90.7178 780.013 91.1039 775.329 91.1039C765.314 91.1039 763.303 89.031 763.303 85.6855C763.303 82.2618 765.669 78.9822 770.33 75.9415C774.413 73.3427 780.359 70.7167 786.639 68.7372C788.29 68.2278 789.275 66.9177 789.275 65.2315C789.275 63.325 787.858 61.2674 785.568 61.2674C785.147 61.2674 784.72 61.3385 784.309 61.4763C780.273 62.7242 776.202 64.3221 772.495 66.1111C771.627 60.8305 771.168 54.7464 771.168 48.4677C771.168 45.9481 769.115 44.6296 767.087 44.6296C765.059 44.6296 763.006 45.9481 763.006 48.4677C763.006 56.3265 763.764 63.6858 765.257 70.3452C758.356 75.1152 755.139 80.1152 755.139 86.0608C755.139 94.7467 761.723 98.9693 775.265 98.9693C781.166 98.9693 785.758 98.5883 789.727 97.7697C791.681 97.3277 792.896 95.813 792.896 93.817C792.896 91.8781 791.579 89.9157 789.064 89.9157Z" fill="#231815"/>
<path d="M863.333 35.1709C860.916 35.1709 858.327 36.7379 858.327 39.0709C858.327 39.7549 858.531 40.4427 858.933 41.1114C859.952 42.862 860.744 44.3189 861.538 46.173C862.259 47.8051 863.84 48.7793 865.768 48.7793C868.221 48.7793 870.869 47.1516 870.869 44.5221C870.869 43.8864 870.741 43.3046 870.474 42.7112C869.966 41.3388 868.952 39.2129 867.632 37.3733C866.729 35.9943 865.121 35.1709 863.333 35.1709Z" fill="#231815"/>
<path d="M844.603 36.3576C844.934 36.3576 845.524 36.3354 846.114 36.3129C846.695 36.2906 847.275 36.2684 847.619 36.2678C857.353 35.6924 872.624 34.2222 883.626 31.9728C886.722 31.3612 887.821 29.1562 887.821 27.4535C887.821 25.0971 885.983 22.6597 882.907 22.6597C882.52 22.6597 882.119 22.6597 881.723 22.7549C870.259 24.925 856.656 26.4866 844.406 27.0388C841.247 27.1335 839.596 29.4318 839.596 31.6536C839.596 33.9913 841.316 36.3576 844.603 36.3576Z" fill="#231815"/>
<path d="M889.833 91.8425C883.839 90.117 878.632 87.919 874.35 85.3057C877.316 82.4453 879.776 79.5982 881.863 76.6096C883.309 74.4954 884.074 72.4536 884.074 70.7065C884.074 66.4915 880.418 63.7683 874.759 63.7683H849.192C848.893 63.7683 848.615 63.7925 848.36 63.8414C848.446 63.5264 848.487 63.1682 848.487 62.7528V60.0715C848.487 58.6788 848.657 58.4311 850.784 58.4311H881.034C883.161 58.4311 883.331 58.6788 883.331 60.0715V62.7528C883.331 65.5478 885.945 67.0104 888.526 67.0104C891.107 67.0104 893.721 65.5478 893.721 62.7528V57.57C893.721 52.2874 890.672 49.8271 884.125 49.8271H881.26C883.321 46.6657 885.136 43.5503 886.658 40.5629C887.05 39.8161 887.257 39.053 887.257 38.3557C887.257 35.616 884.416 33.92 881.784 33.92C879.691 33.92 878.014 34.9323 877.178 36.7045C875.102 41.3885 872.621 45.9223 869.997 49.8271H853.493C855.35 49.2101 856.916 47.6612 856.916 45.5943C856.916 44.8621 856.679 44.1597 856.405 43.4697C855.659 42.1332 854.512 40.2184 853.29 38.6936C852.252 37.344 850.797 36.601 849.192 36.601C846.735 36.601 843.998 38.3494 843.998 40.8582C843.998 41.7356 844.265 42.5031 844.806 43.1893C845.712 44.4864 846.733 46.156 847.406 47.4433C848.018 48.6106 848.916 49.4232 850.016 49.8271H847.693C841.325 49.8271 838.097 52.4023 838.097 57.4804V62.1006C837.275 61.115 836.092 60.551 834.77 60.551C834.108 60.551 833.504 60.6723 832.836 60.9454C831.876 61.3264 830.89 61.7189 829.85 62.1076V49.1371H834.676C837.41 49.1371 838.84 46.8152 838.84 44.522C838.84 42.229 837.41 39.9075 834.676 39.9075H829.85V25.3081C829.85 22.4445 827.109 21.1404 824.562 21.1404C822.015 21.1404 819.273 22.4445 819.273 25.3081V39.9075H812.48C809.808 39.9075 808.409 42.2291 808.409 44.522C808.409 46.8153 809.808 49.1371 812.48 49.1371H819.273V65.6424C816.6 66.4877 813.81 67.2625 811.183 67.8893C808.837 68.492 807.38 70.2563 807.38 72.4936C807.38 74.9279 809.259 77.5552 812.294 77.5552C812.794 77.5552 813.284 77.4618 813.774 77.3678C815.356 76.99 816.984 76.4921 818.707 75.965L819.273 75.7922V92.7805C819.273 94.0126 818.954 94.3314 817.724 94.3314C817.043 94.3314 816.02 94.2514 815.272 94.0723C815.116 94.0367 814.949 94.0424 814.804 94.017C814.67 93.9935 814.547 93.9745 814.447 93.9745C811.221 93.9745 809.534 96.4754 809.534 98.9465C809.534 101.461 811.151 103.306 813.641 103.645C815.224 103.929 817.241 104.098 819.036 104.098C826.313 104.098 829.85 100.98 829.85 94.5676V72.1844C832.582 71.1759 834.822 70.2315 836.689 69.3024C838.266 68.5498 839.205 67.2155 839.3 65.6145C840.262 66.4922 841.705 67.0104 843.292 67.0104C844.123 67.0104 844.859 66.8973 845.522 66.6662C845.376 67.1329 845.308 67.5712 845.308 68.0252C845.308 70.1407 846.642 72.2828 849.192 72.2828H849.929C852.462 77.2637 855.503 81.579 858.971 85.1171C852.821 88.7605 846.054 91.5453 839.37 93.1806C836.776 93.8633 835.288 95.5095 835.288 97.6954C835.288 100.14 837.338 102.757 840.389 102.757C840.791 102.757 841.277 102.664 841.776 102.57C850.761 100.382 859.276 96.6424 866.417 91.7498C872.519 96.2811 879.455 99.619 887.023 101.669C887.597 101.852 888.197 101.952 888.714 101.952C891.922 101.952 893.907 99.2323 893.907 96.7123C893.907 94.9779 892.839 92.6618 889.833 91.8425ZM872.28 72.8512C872.28 73.0855 871.977 73.5688 871.864 73.7486C870.611 75.7109 868.848 77.6676 866.621 79.5671C864.138 77.2555 862.039 74.8085 860.372 72.2828H870.919C872.28 72.2828 872.28 72.681 872.28 72.8512Z" fill="#231815"/>
<path d="M984.778 92.6402C974.404 90.507 964.818 87.3399 956.952 83.4539H982.184C984.788 83.4539 985.974 81.3397 985.974 79.3754C985.974 77.4111 984.788 75.2969 982.184 75.2969H949.823V71.2102H972.725C975.2 71.2102 976.328 69.1424 976.328 67.2213C976.328 65.236 975.214 63.2324 972.725 63.2324H949.823V59.3248H980.404C982.831 59.3248 984.1 57.2728 984.1 55.2463C984.1 53.2191 982.831 51.1672 980.404 51.1672H960.431C961.417 49.7662 962.217 48.4897 962.982 47.1024C963.385 46.4289 963.59 45.7411 963.59 45.0584C963.59 44.1705 963.245 43.3691 962.584 42.7026H983.307C985.976 42.7026 987.191 40.4957 987.191 38.4453C987.191 36.4378 985.976 34.2773 983.307 34.2773H970.018C970.212 34.1258 970.409 33.9547 970.615 33.7591C972.296 32.059 973.755 29.9794 974.971 28.1533C975.513 27.2251 975.766 26.4913 975.766 25.8444C975.766 23.3356 973.078 21.5872 970.665 21.5872C968.864 21.5872 967.369 22.4036 966.457 23.8836C965.429 25.5164 964.339 26.9501 963.017 28.4057C962.252 29.3183 961.911 30.1823 961.911 31.2067C961.911 32.3943 962.498 33.4997 963.496 34.2773H957.504V23.6103C957.504 20.8696 954.907 19.6213 952.495 19.6213C949.957 19.6213 947.395 20.8547 947.395 23.6103V34.2773H941.488V23.6103C941.488 20.8696 938.893 19.6213 936.482 19.6213C934.07 19.6213 931.474 20.8696 931.474 23.6103V34.2773H925.946C926.982 33.4695 927.627 32.2984 927.627 31.1172C927.627 30.1582 927.23 29.1033 926.443 27.978C925.24 26.3001 924.012 24.9334 922.47 23.5537C921.429 22.5598 920.154 22.0343 918.781 22.0343C916.163 22.0343 913.867 23.9818 913.867 26.202C913.867 27.0829 914.254 27.9631 914.981 28.742L915.136 28.917C916.629 30.5933 917.706 31.8043 918.516 33.091C918.842 33.5578 919.206 33.9512 919.615 34.2773H906.513C904.051 34.2773 902.723 36.4248 902.723 38.4453C902.723 40.5608 904.025 42.7026 906.513 42.7026H927.01C926.327 43.3726 925.949 44.2277 925.949 45.1476C925.949 45.9913 926.298 46.8658 926.957 47.6755C927.73 48.6351 928.444 49.6621 929.2 50.7493L929.49 51.1672H910.82C908.394 51.1672 907.125 53.2191 907.125 55.2463C907.125 57.2728 908.394 59.3248 910.82 59.3248H939.621V63.2324H917.283C914.808 63.2324 913.681 65.3002 913.681 67.2213C913.681 69.1551 914.944 71.2102 917.283 71.2102H939.621V75.2969H907.542C905.055 75.2969 903.753 77.3489 903.753 79.3754C903.753 81.4019 905.055 83.4539 907.542 83.4539H932.516C924.15 88.0506 914.676 91.6826 905.027 93.9847C902.705 94.581 901.319 96.1687 901.319 98.2315C901.319 100.382 902.943 102.667 905.952 102.667C906.378 102.667 906.789 102.601 907.265 102.523L907.533 102.478C919.665 99.2616 931.154 94.3962 939.968 88.7485L939.621 96.2653V101.627C939.621 104.129 942.188 105.438 944.722 105.438C947.179 105.438 949.823 104.246 949.823 101.627L949.822 96.2475L949.39 88.391C958.234 93.9936 970.184 98.8538 982.321 101.77C982.883 101.86 983.465 101.952 983.962 101.952C987.127 101.952 988.782 99.5861 988.782 97.2484C988.782 95.4168 987.73 93.2442 984.778 92.6402ZM938.678 49.2585C938.678 48.5043 938.433 47.7321 937.973 47.0278C936.915 45.3769 936.061 44.2969 934.832 42.8572C934.778 42.8058 934.725 42.754 934.669 42.7026H954.406C953.994 43.1138 953.637 43.6101 953.324 44.2061C952.268 46.474 950.857 48.8777 949.238 51.1672H938.075C938.463 50.5658 938.678 49.8964 938.678 49.2585Z" fill="#231815"/>
<path d="M284.102 115C276.657 115 266.809 112.049 260.75 101.234H18.805C8.43591 101.234 0 92.7823 0 82.3936V42.8398C0 32.4515 8.43591 24 18.805 24H308.5C318.869 24 327.305 32.4515 327.305 42.8398V82.3936C327.305 92.7823 318.869 101.234 308.5 101.234H287.781C289.15 105.671 291.203 107.427 291.519 107.676C292.751 108.437 293.348 109.814 293.146 111.254C292.941 112.708 291.814 113.852 290.398 114.231C288.698 114.687 286.526 115 284.102 115ZM18.805 31.3172C12.4625 31.3172 7.3028 36.486 7.3028 42.8398V82.3936C7.3028 88.7474 12.4625 93.9167 18.805 93.9167H262.974C264.387 93.9167 265.673 94.7331 266.276 96.0128C270.498 104.966 277.473 107.238 282.493 107.593C281.298 105.248 280.205 102.133 279.641 98.0808C279.495 97.0325 279.81 95.9722 280.503 95.1736C281.196 94.375 282.201 93.9167 283.258 93.9167H308.5C314.842 93.9167 320.002 88.7474 320.002 82.3936V42.8398C320.002 36.486 314.842 31.3172 308.5 31.3172L18.805 31.3172Z" fill="#231815"/>
<path d="M18.805 31.3172C12.4625 31.3172 7.3028 36.486 7.3028 42.8398V82.3936C7.3028 88.7474 12.4625 93.9167 18.805 93.9167H262.974C264.387 93.9167 265.673 94.7331 266.276 96.0128C270.498 104.966 277.473 107.238 282.493 107.593C281.298 105.248 280.205 102.133 279.641 98.0808C279.495 97.0325 279.81 95.9722 280.503 95.1736C281.196 94.375 282.201 93.9167 283.258 93.9167H308.5C314.842 93.9167 320.002 88.7474 320.002 82.3936V42.8398C320.002 36.486 314.842 31.3172 308.5 31.3172L18.805 31.3172Z" fill="white"/>
<path d="M375.394 32.8369C372.375 32.8369 368.796 32.8936 364.466 33.0095V29.0856C364.466 27.5968 363.165 26.8176 361.879 26.8176C360.555 26.8176 359.215 27.6096 359.215 29.1228C359.215 30.5768 359.215 31.9596 359.242 33.1888C354.605 33.3544 349.5 33.592 344.443 33.8785C342.765 33.97 342 35.2332 342 36.3684C342 37.6298 342.893 38.9708 344.547 38.9708C345.002 38.9708 345.908 38.9319 346.331 38.8951C349.232 38.7087 353.508 38.5001 356.63 38.3473C357.652 38.2972 358.572 38.2525 359.312 38.2148L359.386 40.0717C358.771 39.9557 358.157 39.8969 357.556 39.8969C353.717 39.8969 351.036 42.6327 351.036 46.5496C351.036 50.8396 353.891 53.7219 358.14 53.7219C358.791 53.7219 359.407 53.6238 359.959 53.4375C359.038 54.6786 357.4 56.0933 354.958 57.0998C353.802 57.5725 353.138 58.4267 353.138 59.443C353.138 60.8573 354.352 62.0082 355.843 62.0082C356.211 62.0082 356.623 61.9221 357.087 61.7445C363.095 59.118 366.141 54.8058 366.141 48.9277C366.141 47.0021 365.68 45.2426 364.806 43.83C364.679 42.0415 364.598 40.1834 364.553 38.0281C368.499 37.9196 372.227 37.819 375.55 37.819C377.078 37.819 377.903 36.5547 377.903 35.3652C377.903 34.1476 377.118 32.8369 375.394 32.8369ZM360.15 46.9951C360.15 48.3406 359.488 49.1119 358.335 49.1119C357.275 49.1119 356.131 48.175 356.131 46.661C356.131 45.332 356.811 44.5069 357.906 44.5069C359.248 44.5069 360.15 45.5067 360.15 46.9951Z" fill="#231815"/>
<path d="M413.546 26.6537C413.103 26.2323 412.528 26 411.927 26C410.8 26 409.847 26.8177 409.847 27.7852C409.847 28.1798 410.015 28.5851 410.312 28.9159C410.879 29.5849 411.962 30.9039 412.856 32.2246C413.311 32.875 413.98 33.2484 414.692 33.2484C415.837 33.2484 416.734 32.3989 416.734 31.315C416.734 30.9259 416.591 30.5011 416.313 30.0598C415.672 29.0074 414.667 27.7686 413.546 26.6537Z" fill="#231815"/>
<path d="M408.5 53.2362C408.309 53.2362 408.118 53.2652 407.899 53.3012L407.784 53.3198C404.154 54.029 400.607 54.3884 397.244 54.3884C389.718 54.3884 389.12 53.0362 389.12 51.2684C389.12 50.7927 389.187 50.074 389.343 49.5118C389.384 49.3164 389.432 49.0945 389.432 48.8904C389.432 47.4653 388.079 46.6965 386.806 46.6965C385.513 46.6965 384.5 47.3983 384.165 48.5198C383.882 49.4066 383.713 50.5037 383.713 51.4539C383.713 57.0314 387.886 59.5187 397.244 59.5187C401.325 59.5187 405.199 59.1271 408.762 58.3546C410.449 57.9758 411.048 56.7225 411.048 55.7645C411.048 54.5217 410.094 53.2362 408.5 53.2362Z" fill="#231815"/>
<path d="M409.358 29.199C408.949 28.766 408.41 28.5271 407.838 28.5271C406.689 28.5271 405.719 29.3783 405.719 30.386C405.719 30.8153 405.869 31.2103 406.151 31.5241C406.979 32.4639 407.926 33.5916 408.675 34.8428C409.098 35.5159 409.714 35.8865 410.408 35.8865C411.536 35.8865 412.489 34.984 412.489 33.9158C412.489 33.5051 412.37 33.116 412.149 32.7777C411.487 31.6549 410.441 30.3152 409.358 29.199Z" fill="#231815"/>
<path d="M388.538 36.8798C390.638 37.3178 393.243 37.5219 396.738 37.5219C399.004 37.5219 401.928 37.4702 404.444 37.0698C405.939 36.8405 406.608 35.6564 406.608 34.5849C406.608 33.3417 405.701 32.0198 404.021 32.0198C403.937 32.0198 403.854 32.0313 403.77 32.0446C403.737 32.05 403.704 32.057 403.624 32.0595C401.829 32.2338 399.158 32.4656 396.698 32.4656C394.296 32.4656 391.704 32.2255 389.605 31.8107C389.395 31.7598 389.159 31.7598 388.987 31.7598C387.332 31.7598 386.439 33.1007 386.439 34.3622C386.439 35.4159 387.091 36.6036 388.538 36.8798Z" fill="#231815"/>
<path d="M430.442 45.2156C429.818 44.5458 429.638 44.2282 429.638 43.7997C429.638 43.3886 429.739 43.0901 430.319 42.5026C433.532 39.1976 436.938 35.1606 439.219 31.9496C439.581 31.3886 439.765 30.85 439.765 30.3486C439.765 28.7642 438.3 27.7834 436.944 27.7834C436.038 27.7834 435.224 28.2285 434.713 28.9998C431.813 33.2839 428.684 37.1566 426.128 39.6265C424.781 40.948 424.153 42.2857 424.153 43.837C424.153 45.2686 424.829 46.6419 426.349 48.2938C429.39 51.518 432.994 56.044 435.533 59.828C436.176 60.7678 437.067 61.265 438.112 61.265C439.525 61.265 441.05 60.2557 441.05 58.6253C441.05 58.0685 440.824 57.4628 440.368 56.8111C437.232 52.6234 433.703 48.5016 430.442 45.2156Z" fill="#231815"/>
<path d="M365.918 75.1373C362.433 75.1373 358.76 76.4795 355.242 79.029L355.251 78.8588C356.208 77.7327 356.663 77.0272 356.663 76.1789C356.663 75.5194 356.264 74.8235 355.387 74.5846L355.495 69.2468C355.514 68.6763 355.322 68.1646 354.939 67.7676C354.468 67.2799 353.743 67 352.948 67C351.694 67 350.361 67.7821 350.361 69.2245L350.288 75.021L345.516 75.7745C344.189 75.9691 343.584 77.103 343.584 78.0743C343.584 79.2803 344.45 80.5281 345.898 80.5281C346.027 80.5281 346.189 80.5281 346.372 80.483L350.188 79.8061L350.131 81.6385C348.012 84.8636 345.631 88.0754 343.58 90.4701C343.201 90.923 343 91.4417 343 91.9704C343 93.2576 344.209 94.387 345.586 94.387C346.325 94.387 346.992 94.0574 347.513 93.4352L350.031 90.4535L349.933 97.5819C349.933 99.0462 351.214 99.8125 352.48 99.8125C353.765 99.8125 355.067 99.0462 355.067 97.5835L355.105 84.9762C358.677 81.7229 362.51 79.9336 365.918 79.9336C368.838 79.9336 370.652 81.7266 370.652 84.6135C370.652 88.7619 368.534 91.1118 363.572 92.4693C361.987 92.8941 361.422 94.045 361.422 94.9807C361.422 96.2231 362.419 97.5086 364.087 97.5086C364.279 97.5086 364.471 97.4792 364.692 97.4436L364.828 97.4196C372.04 95.6004 376.177 90.9192 376.177 84.5767C376.177 79.1072 371.862 75.1373 365.918 75.1373Z" fill="#231815"/>
<path d="M416.469 81.1164C415.163 78.6605 412.71 75.1514 410.17 72.8441C409.559 72.3026 408.829 72.0161 408.058 72.0161C406.572 72.0161 405.316 73.0888 405.316 74.3586C405.316 74.9282 405.585 75.5228 406.077 76.0345C408.102 78.112 410.139 80.9313 411.529 83.5818C412.104 84.64 413.04 85.247 414.096 85.247C415.444 85.247 416.838 84.2596 416.838 82.6072C416.838 82.0914 416.711 81.5768 416.471 81.1189L416.469 81.1164Z" fill="#231815"/>
<path d="M396.92 75.2488C396.46 75.2488 395.958 75.2492 395.414 75.2637C395.802 73.3369 396.103 71.4619 396.312 69.6398V69.3794C396.312 67.8583 394.94 67.0374 393.648 67.0374C392.25 67.0374 391.197 67.9084 391.026 69.2101C390.779 71.2561 390.426 73.4246 389.974 75.6615C388.148 75.8615 386.061 76.1161 384.096 76.4833C382.791 76.7247 381.947 77.6699 381.947 78.8916C381.947 80.045 382.772 81.2709 384.3 81.2709C384.481 81.2709 384.707 81.2709 384.902 81.2246C386.233 80.9571 387.533 80.7398 388.778 80.5766C387.267 85.8072 385.299 90.5352 383.063 94.2939C382.796 94.7618 382.648 95.2565 382.648 95.6867C382.648 96.9999 383.801 98.0291 385.274 98.0291C386.337 98.0291 387.255 97.5095 387.792 96.6037C390.373 92.2686 392.693 86.391 394.34 80.0202C395.24 79.9627 396.08 79.9337 396.841 79.9337C398.116 79.9337 398.889 80.1858 398.889 83.685C398.889 86.7482 398.538 89.5602 397.898 91.6079C397.281 93.6514 396.734 93.8646 395.634 93.8646C394.954 93.8646 394.437 93.8112 393.84 93.7495L393.492 93.716C393.456 93.716 393.421 93.7077 393.389 93.7019C393.311 93.6882 393.239 93.6787 393.181 93.6787C391.559 93.6787 390.71 94.9506 390.71 96.2071C390.71 97.2818 391.429 98.4675 393.03 98.6923C393.839 98.8137 394.83 98.8836 395.751 98.8836C399.889 98.8836 401.824 97.2756 403.147 92.7385C403.838 90.3745 404.218 87.1726 404.218 83.7223C404.218 77.6248 402.172 75.2488 396.92 75.2488Z" fill="#231815"/>
<path d="M437.437 79.5963C436.331 79.5963 435.172 79.7421 434.054 80.0153C436.179 77.9469 438.546 75.3511 440.621 72.8004C441.156 72.121 441.427 71.4329 441.427 70.7544C441.427 69.1704 440.034 67.9292 438.255 67.9292C438.052 67.9292 437.86 67.9292 437.639 67.9718C433.421 68.6007 429.524 69.0213 426.66 69.1563C425.036 69.2503 424.296 70.4741 424.296 71.5716C424.296 72.7793 425.148 74.0627 426.727 74.0627C427.064 74.0627 427.617 74.0155 428.012 73.9816C428.2 73.9654 428.347 73.9522 428.438 73.9497C429.851 73.8421 431.807 73.6557 433.58 73.4222C429.795 77.7424 425.19 82.0787 421.338 84.9308C420.584 85.4897 420.168 86.2482 420.168 87.0663C420.168 88.4366 421.388 89.5942 422.832 89.5942C423.479 89.5942 424.164 89.3487 424.754 88.9053C429.199 85.6301 432.979 84.1695 437.009 84.1695C440.261 84.1695 442.446 85.8859 442.446 88.4412C442.446 90.8308 441.382 92.7179 439.434 93.8109C438.105 90.0579 435.303 87.9195 431.673 87.9195C428.091 87.9195 425.776 89.9767 425.776 93.16C425.776 96.9238 429.563 99.5527 434.984 99.5527C442.873 99.5527 447.97 95.1763 447.97 88.4039C447.97 83.0537 443.836 79.5963 437.437 79.5963ZM434.403 94.8637C432.127 94.8032 430.677 94.1483 430.677 93.16C430.677 92.592 431.054 92.1954 431.596 92.1954C432.842 92.1954 433.785 93.0921 434.403 94.8637Z" fill="#231815"/>
<path d="M43.201 63.2108C44.1851 63.2108 44.7198 62.421 44.7198 61.6833C44.7198 60.9457 44.2006 60.1558 43.201 60.1558H33.7004V57.3393H40.8684C41.8061 57.3393 42.302 56.5868 42.302 55.8342C42.302 55.0816 41.8061 54.3291 40.8684 54.3291H33.7004V51.4306C33.7004 50.6035 32.9564 50.0298 31.887 50.0298C31.0114 50.0298 30.0737 50.4694 30.0737 51.4306V54.344H27.3537C27.5164 53.9789 27.6792 53.5914 27.8342 53.1816C27.9039 52.9953 27.9349 52.8389 27.9349 52.6824C27.9349 51.7435 27.0127 51.1773 26.1216 51.1773C25.3699 51.1773 24.7345 51.5871 24.4865 52.2279C23.7813 54.1055 22.8359 55.8565 21.7355 57.2872C21.4953 57.5927 21.3713 57.9205 21.3713 58.2707C21.3713 59.1127 22.1307 59.7758 23.1071 59.7758C23.5721 59.7758 24.2463 59.6268 24.7887 58.8966C25.0909 58.4868 25.4706 57.9503 25.8349 57.3468H30.0815V60.1633H20.4879C19.5115 60.1633 19 60.9307 19 61.6908C19 62.4508 19.5192 63.2182 20.4879 63.2182H26.8733C26.3386 66.8097 24.4555 68.8811 20.2554 70.5427C19.527 70.8407 19.1085 71.3846 19.1085 72.0478C19.1085 72.86 19.7672 73.7019 20.8676 73.7019C21.1698 73.7019 21.4178 73.6572 21.6657 73.5529C27.0127 71.5262 29.911 68.1434 30.5154 63.2182H32.9099V70.267C32.9099 72.6737 34.0336 73.2996 38.3732 73.2996C42.7128 73.2996 44.0921 72.2788 44.4951 69.0674V68.9183C44.4951 67.9422 43.5574 67.4132 42.6818 67.4132C41.7209 67.4132 41.0157 67.9497 40.9227 68.7619C40.7832 70.1925 40.6282 70.3713 38.4119 70.3713C36.5288 70.3713 36.5288 70.1701 36.5288 69.8646V63.2182H43.2087L43.201 63.2108Z" fill="black"/>
<path d="M71.9353 69.8423H62.7679V65.5728H68.7039C69.6803 65.5728 70.1917 64.8054 70.1917 64.0453C70.1917 63.2853 69.7268 62.5179 68.7039 62.5179H62.7679V59.0978H70.4009C71.3774 59.0978 71.8888 58.3154 71.8888 57.548C71.8888 56.7805 71.3774 55.9982 70.4009 55.9982H62.7679V51.4008C62.7679 49.5604 59.0793 49.5604 59.0793 51.4008V55.9907H54.9567C55.2201 55.2605 55.4526 54.5154 55.6541 53.733C55.6773 53.6213 55.7006 53.5244 55.7006 53.4052C55.7006 52.4365 54.7474 51.8553 53.8253 51.8553C52.9806 51.8553 52.2832 52.3397 52.0507 53.0997C51.0898 56.3633 49.7414 59.3288 48.1451 61.6684C47.9358 61.9739 47.8196 62.3241 47.8196 62.6594C47.8196 63.5014 48.6255 64.1869 49.6097 64.1869C50.2993 64.1869 50.9503 63.8293 51.3455 63.2257C52.1592 62.0485 52.9573 60.6253 53.6703 59.0978H59.0793V62.5179H53.6083C52.6474 62.5179 52.1437 63.2853 52.1437 64.0453C52.1437 64.8054 52.6474 65.5728 53.6083 65.5728H59.0793V69.8423H49.6329C48.672 69.8423 48.176 70.6321 48.176 71.4219C48.176 72.2118 48.6797 73.0016 49.6329 73.0016H71.9353C72.9117 73.0016 73.4232 72.2118 73.4232 71.4219C73.4232 70.6321 72.9582 69.8423 71.9353 69.8423Z" fill="black"/>
<path d="M96.7562 67.3537C96.64 67.3537 96.5005 67.3537 96.3688 67.3835C95.0514 67.622 93.5635 67.7561 92.2926 67.7561C88.9217 67.7561 88.2863 67.2047 88.077 65.8784C87.9531 65.0812 87.2711 64.5447 86.3722 64.5447C85.4733 64.5447 84.4736 65.1408 84.4736 66.251V66.4075C84.7991 69.7083 87.1316 71.1165 92.2617 71.1165C93.9045 71.1165 95.5241 70.975 97.0584 70.6844C98.1356 70.4907 98.5153 69.6934 98.5153 69.06C98.5153 68.233 97.8954 67.3537 96.7562 67.3537Z" fill="black"/>
<path d="M87.4417 58.3974C87.4417 58.3974 87.4882 58.3974 87.5037 58.3974C90.0377 58.3452 92.7964 58.1515 95.2684 57.846C96.4231 57.697 96.9345 56.8997 96.9345 56.1695C96.9345 55.3573 96.3223 54.5452 95.1445 54.5452H94.8887C92.4245 54.8581 89.8285 55.0518 87.3874 55.0965C86.2173 55.1264 85.6051 55.9534 85.6051 56.7507C85.6051 57.2052 85.7833 57.6225 86.1011 57.928C86.4343 58.2409 86.8992 58.4048 87.4417 58.4048V58.3974Z" fill="black"/>
<path d="M79.8551 52.3323C78.9174 52.3323 78.1967 52.839 78.0185 53.6213C77.0963 57.9057 76.7244 61.2736 76.7244 65.2674C76.7244 67.8678 77.0808 70.6992 77.1971 71.5114C77.3443 72.413 78.0882 72.9942 79.0956 72.9942C80.0178 72.9942 80.9942 72.4204 80.9942 71.3698C80.9942 71.3326 80.9942 71.2879 80.9787 71.2357L80.9632 71.1314C80.7772 69.7157 80.475 67.3388 80.475 65.2748C80.475 61.4748 80.8625 58.0771 81.7226 54.2621C81.7614 54.128 81.7614 53.9939 81.7614 53.9119C81.7614 52.8762 80.8082 52.3323 79.8628 52.3323H79.8551Z" fill="black"/>
<path d="M124.894 56.7954L120.384 57.0041V53.1817C120.384 52.1162 119.438 51.6318 118.571 51.6318C117.703 51.6318 116.757 52.1683 116.757 53.1817V57.2127C116.021 57.2574 115.285 57.3021 114.541 57.3468C113.038 57.4362 111.534 57.5182 110.031 57.63V54.1578C110.031 52.1832 106.342 52.1832 106.342 54.1578V57.8684C105.676 57.9206 105.009 57.9727 104.343 58.0174C103.568 58.077 102.793 58.1292 102.026 58.1963C100.871 58.2857 100.344 59.1574 100.344 59.9249C100.344 60.2006 100.414 60.4763 100.538 60.6998C100.794 61.2438 101.336 61.5493 102.026 61.5493H102.243C103.607 61.43 104.978 61.3183 106.342 61.2214C106.342 63.6654 106.396 65.5058 106.505 67.3611C106.722 70.9898 108.861 72.6067 113.448 72.6067C116.548 72.6067 118.826 72.4279 121.066 72.0031C122.282 71.7796 122.716 70.9525 122.716 70.3043C122.716 69.4921 122.089 68.6278 120.926 68.6278C120.771 68.6278 120.616 68.6576 120.454 68.6874C118.369 69.0898 116.091 69.2835 113.471 69.2835C111.271 69.2835 110.294 68.6054 110.194 67.0035C110.054 65.2301 110.031 63.4865 110.031 61.0798V60.9532C112.263 60.7967 114.487 60.6551 116.718 60.521C116.687 61.5865 116.618 62.3316 116.486 62.9799C116.37 63.5238 116.199 63.6207 115.75 63.6207C115.3 63.6207 114.936 63.5834 114.611 63.5089C114.479 63.4716 114.347 63.4716 114.239 63.4716C113.138 63.4716 112.557 64.3062 112.557 65.1258C112.557 65.7964 112.991 66.5564 113.96 66.7501C114.626 66.8693 115.262 66.9289 115.905 66.9289C118.4 66.9289 119.562 65.9752 120.043 63.5312C120.213 62.7042 120.314 61.6536 120.345 60.3198C121.066 60.2826 121.786 60.2453 122.507 60.2081C123.336 60.1633 124.158 60.1186 124.995 60.0814C126.103 60.0218 126.684 59.2171 126.684 58.457C126.684 57.6523 126.056 56.8029 124.894 56.8029V56.7954Z" fill="black"/>
<path d="M126.219 50.6333C125.94 50.231 125.483 50 124.979 50C124.22 50 123.6 50.5067 123.6 51.1251C123.6 51.3114 123.646 51.4828 123.755 51.6765C124.235 52.4887 124.7 53.4052 125.026 54.2024C125.274 54.7613 125.754 55.0891 126.351 55.0891C127.017 55.0891 127.73 54.6048 127.73 53.815C127.73 53.6063 127.684 53.4126 127.598 53.2338C127.289 52.444 126.738 51.4008 126.219 50.6408V50.6333Z" fill="black"/>
<path d="M121.81 55.3945C122.035 55.9533 122.53 56.2886 123.143 56.2886C123.809 56.2886 124.522 55.849 124.522 55.0368C124.522 54.9027 124.522 54.7388 124.452 54.5451C124.166 53.7031 123.685 52.6972 123.135 51.7732C122.879 51.3634 122.445 51.125 121.942 51.125C121.252 51.125 120.508 51.5944 120.508 52.3023C120.508 52.4886 120.554 52.6599 120.655 52.8388C121.097 53.6435 121.531 54.5898 121.818 55.3945H121.81Z" fill="black"/>
<path d="M154.38 60.5358C152.303 58.7624 150.033 55.8937 148.731 53.4051C148.413 52.7643 147.754 52.3843 146.972 52.3843C146.026 52.3843 145.042 52.9804 145.042 53.9863C145.042 54.1204 145.073 54.262 145.112 54.4259C145.809 56.5792 146.166 59.0009 146.166 61.6385C146.166 66.4669 143.996 69.2387 140.199 69.2387C137.665 69.2387 136.208 67.6441 136.208 64.8723C136.208 62.4954 137.107 59.0009 141.4 55.8267C141.865 55.4839 142.128 55.0071 142.128 54.4855C142.128 53.651 141.415 52.7792 140.23 52.7792C140.098 52.7792 139.974 52.7792 139.811 52.809C137.765 53.2113 135.007 53.569 132.449 53.7851C131.349 53.8745 130.853 54.642 130.853 55.3647C130.853 56.1992 131.465 57.0412 132.643 57.0412H132.868C134.023 56.922 135.2 56.7581 136.223 56.5792C133.186 59.6118 132.519 62.7562 132.519 64.917C132.519 69.7677 135.41 72.6662 140.253 72.6662C145.987 72.6662 149.552 68.7693 149.552 62.488C149.552 61.6534 149.498 60.804 149.382 59.962C150.025 60.9381 150.815 61.9589 151.714 62.9723C152.125 63.4566 152.644 63.71 153.218 63.71C154.233 63.71 155.116 62.8903 155.116 61.9589C155.116 61.5938 154.984 61.0499 154.38 60.5358Z" fill="black"/>
<path d="M165.981 57.7938C166.918 57.7938 167.414 57.0114 167.414 56.2439C167.414 55.4765 166.918 54.6941 165.981 54.6941H158.231C157.317 54.6941 156.829 55.4914 156.829 56.2439C156.829 56.9965 157.325 57.7938 158.231 57.7938H165.981Z" fill="black"/>
<path d="M159.68 54.1801H165.051C165.957 54.1801 166.43 53.435 166.43 52.7048C166.43 51.9746 165.957 51.2295 165.051 51.2295H159.68C158.797 51.2295 158.332 51.9746 158.332 52.7048C158.332 53.435 158.805 54.1801 159.68 54.1801Z" fill="black"/>
<path d="M172.614 63.3674C171.839 63.3674 170.994 63.7921 170.963 64.731C170.863 67.7263 169.731 69.7679 167.507 70.975C167.166 71.1613 166.903 71.3923 166.732 71.6456C166.771 71.4295 166.787 71.1911 166.787 70.9303V67.771C166.787 66.0051 165.864 65.2153 163.788 65.2153H161.13C159.061 65.2153 158.131 66.0051 158.131 67.771V70.9303C158.131 72.6962 159.053 73.486 161.13 73.486H163.788C165.213 73.486 166.081 73.1358 166.492 72.3535C166.492 72.3758 166.492 72.3907 166.492 72.4131C166.492 73.2848 167.244 73.9927 168.174 73.9927C168.484 73.9927 168.84 73.8958 169.15 73.7319C171.281 72.5695 172.599 71.0942 173.559 68.7918C174.048 67.5997 174.373 65.9977 174.373 64.798C174.373 63.8741 173.466 63.3749 172.614 63.3749V63.3674ZM163.478 68.3299V70.3864C163.478 70.5726 163.447 70.6099 163.447 70.6174C163.447 70.6174 163.408 70.6472 163.237 70.6472H161.68C161.455 70.6472 161.44 70.6472 161.44 70.3938V68.3373C161.44 68.151 161.471 68.1138 161.471 68.1138C161.471 68.1138 161.509 68.084 161.68 68.084H163.237C163.408 68.084 163.439 68.1063 163.439 68.1063C163.439 68.1063 163.47 68.151 163.47 68.3373L163.478 68.3299Z" fill="black"/>
<path d="M181.572 68.0094C180.696 68.0094 180.069 68.4937 179.976 69.2537C179.813 70.7142 179.65 70.7142 178.945 70.7142C178.379 70.7142 178.379 70.6844 178.379 70.4608V64.6639C178.379 62.9203 174.962 62.9203 174.962 64.6639V71.1314C174.962 73.0538 175.9 73.635 178.968 73.635C182.2 73.635 182.983 72.1224 183.254 69.4773V69.3506C183.254 68.4714 182.386 68.002 181.572 68.002V68.0094Z" fill="black"/>
<path d="M165.051 58.3005H159.68C158.797 58.3005 158.332 59.0456 158.332 59.7759C158.332 60.5061 158.805 61.2512 159.68 61.2512H165.051C165.957 61.2512 166.43 60.5061 166.43 59.7759C166.43 59.0456 165.957 58.3005 165.051 58.3005Z" fill="black"/>
<path d="M182.704 64.0675V62.7859C182.704 60.8188 181.719 59.9768 179.41 59.9768H170.53C168.197 59.9768 167.205 60.8188 167.205 62.7859V64.1643C167.205 65.0361 168.05 65.4906 168.887 65.4906C169.724 65.4906 170.568 65.0361 170.568 64.1643V63.0839C170.568 62.8455 170.568 62.7784 171.134 62.7784H178.775C179.34 62.7784 179.34 62.8455 179.34 63.0839V64.06C179.34 65.8334 182.704 65.8334 182.704 64.06V64.0675Z" fill="black"/>
<path d="M168.615 55.7372H173.048V56.5941H169.91C168.949 56.5941 168.445 57.3094 168.445 58.0173C168.445 58.7251 168.949 59.4404 169.91 59.4404H180.402C181.363 59.4404 181.867 58.7251 181.867 58.0173C181.867 57.3094 181.363 56.5941 180.402 56.5941H176.52V55.7372H181.665C182.626 55.7372 183.122 55.0219 183.122 54.3066C183.122 53.5913 182.618 52.8835 181.665 52.8835H176.52V51.5795C176.52 50.6183 175.621 50.1787 174.784 50.1787C173.947 50.1787 173.048 50.6183 173.048 51.5795V52.8835H168.615C167.655 52.8835 167.151 53.5988 167.151 54.3066C167.151 55.0145 167.655 55.7372 168.615 55.7372Z" fill="black"/>
<path d="M165.051 61.7654H159.68C158.797 61.7654 158.332 62.5105 158.332 63.2407C158.332 63.9709 158.805 64.716 159.68 64.716H165.051C165.957 64.716 166.43 63.9709 166.43 63.2407C166.43 62.5105 165.957 61.7654 165.051 61.7654Z" fill="black"/>
<path d="M207.842 64.8725C207.044 64.8725 206.37 65.3122 206.075 66.0126C205.192 68.1063 204.262 69.0899 203.131 69.0899C202.449 69.0899 201.744 69.0899 201.604 66.2659C201.418 62.4062 200.062 60.6925 197.21 60.6925C196.559 60.6925 195.955 60.7968 195.381 61.0054L199.512 54.0088C199.644 53.7629 199.713 53.5171 199.713 53.2712C199.713 52.31 198.659 51.6692 197.675 51.6692C196.947 51.6692 196.335 51.997 196.009 52.5708C193.002 57.6748 189.531 64.3733 186.95 70.066C186.873 70.2597 186.787 70.4832 186.787 70.7291C186.787 71.735 187.803 72.3534 188.74 72.3534C189.492 72.3534 190.135 71.9734 190.468 71.3326C191.073 70.133 191.863 68.6055 192.468 67.4506C193.708 65.0812 195.095 63.8294 196.466 63.8294C197.241 63.8294 197.683 63.9561 197.799 66.5565C197.977 70.6322 199.605 72.5323 202.906 72.5323C206.013 72.5323 208.152 70.8558 209.64 67.242C209.749 66.9439 209.795 66.7279 209.795 66.5416C209.795 65.5208 208.78 64.8874 207.842 64.8874V64.8725Z" fill="black"/>
<path d="M228.711 59.7534C228.363 59.4703 227.991 59.4106 227.743 59.4106C226.968 59.4106 226.278 59.9918 226.278 60.6624C226.278 60.9307 226.402 61.1989 226.65 61.4522C227.464 62.1974 228.115 62.8829 228.642 63.546C228.936 63.9335 229.347 64.1421 229.796 64.1421C230.556 64.1421 231.199 63.546 231.199 62.8382C231.199 62.5103 231.098 62.2272 230.897 61.9887C230.362 61.2585 229.564 60.4463 228.704 59.7534H228.711Z" fill="black"/>
<path d="M227.231 69.0377C224.643 68.7471 221.559 67.7188 221.559 64.418C221.559 62.5552 222.078 59.8058 226.573 57.4587C227.503 56.9743 228.51 56.6391 229.494 56.49C230.54 56.3038 231.005 55.5288 231.005 54.8433C231.005 54.0312 230.393 53.219 229.215 53.219H229.021C223.791 53.6586 216.878 54.3516 210.539 55.0743C209.292 55.2308 208.842 56.043 208.842 56.7508C208.842 57.5853 209.485 58.4795 210.687 58.4795C210.78 58.4795 210.888 58.4795 211.004 58.4497L214.096 58.0324C216.677 57.6822 219.327 57.3246 221.574 57.0414C219.126 59.0905 217.738 61.7654 217.738 64.4925C217.738 68.5757 220.807 71.6381 225.751 72.4875C226.239 72.5695 226.828 72.5919 227.038 72.5919C228.363 72.5919 228.967 71.6679 228.967 70.811C228.967 70.0361 228.425 69.1867 227.216 69.0377H227.231Z" fill="black"/>
<path d="M231.47 57.7862C230.37 56.9815 228.998 57.6893 228.998 58.6505C228.998 58.9486 229.13 59.2243 229.393 59.4627C229.943 59.9917 230.757 60.7741 231.4 61.5192C231.702 61.8843 232.129 62.078 232.601 62.078C233.376 62.078 234.012 61.5192 234.012 60.8263C234.012 60.4835 233.888 60.1631 233.648 59.8949C233.105 59.2019 232.276 58.3972 231.478 57.7788L231.47 57.7862Z" fill="black"/>
<path d="M241.273 51.7288C240.513 51.7288 239.607 52.146 239.405 53.07C238.491 57.1234 238.08 60.6701 238.08 64.567C238.08 66.5565 238.32 69.1569 238.716 71.3699C238.894 72.264 239.599 72.8154 240.552 72.8154C241.505 72.8154 242.482 72.2193 242.482 71.1091C242.482 71.0271 242.482 70.893 242.451 70.7738C242.063 68.8439 241.831 66.4372 241.831 64.485C241.831 60.9905 242.249 57.4587 243.109 53.7033C243.148 53.5692 243.148 53.4351 243.148 53.3531C243.148 52.295 242.187 51.7288 241.273 51.7288Z" fill="black"/>
<path d="M260.111 67.5099C258.701 66.5785 257.198 65.8483 255.648 65.3267C255.516 63.9781 255.431 62.7636 255.377 61.6235C256.454 61.5043 257.531 61.3404 258.507 61.1467C259.375 60.9902 259.941 60.4016 259.941 59.649C259.941 58.8964 259.305 58.0694 258.29 58.0694C258.174 58.0694 258.066 58.0694 257.926 58.0992C257.128 58.2556 256.206 58.3749 255.245 58.4866C255.229 57.7415 255.229 57.0039 255.229 56.2662V56.2066C256.159 56.1023 256.981 55.9831 257.663 55.8564C258.476 55.6999 259.003 55.1113 259.003 54.3587C259.003 53.5614 258.391 52.7344 257.376 52.7344C257.283 52.7344 257.174 52.7344 257.043 52.7642C255.121 53.1367 252.153 53.3603 249.107 53.3603C248.836 53.3603 248.565 53.3454 248.286 53.3379C247.999 53.323 247.713 53.3156 247.434 53.3156C246.356 53.3156 245.861 54.1054 245.861 54.843C245.861 55.5807 246.325 56.3482 247.356 56.445C248.108 56.4972 248.526 56.4972 249.107 56.4972C249.975 56.4972 250.913 56.4748 251.835 56.4376C251.835 57.2125 251.835 57.9949 251.858 58.7549C250.952 58.807 249.991 58.8368 248.999 58.8368C248.271 58.8368 247.806 58.8145 247.286 58.7921H247.093C246.628 58.7772 246.217 58.9113 245.915 59.1945C245.605 59.4851 245.427 59.9098 245.427 60.3643C245.427 61.0647 245.884 61.8545 246.891 61.9141C247.589 61.9663 248.178 61.9663 249.076 61.9663C250.076 61.9663 251.052 61.9365 251.99 61.8843C252.037 62.8157 252.099 63.7322 252.168 64.6412C251.719 64.5965 251.246 64.5816 250.719 64.5816C247.162 64.5816 245.039 66.0271 245.039 68.4413C245.039 70.8555 247.062 72.3233 250.309 72.3233C254.09 72.3233 255.377 70.5425 255.749 68.8884C256.477 69.2535 257.221 69.6931 257.988 70.2147C258.376 70.4829 258.794 70.6245 259.243 70.6245C260.197 70.6245 261.003 69.8794 261.003 69.0001C261.003 68.4189 260.677 67.8974 260.096 67.5248L260.111 67.5099ZM250.735 67.4801C251.246 67.4801 251.789 67.5397 252.354 67.6664C252.238 68.7617 251.572 69.2982 250.324 69.2982C248.495 69.2982 248.495 68.6574 248.495 68.4413C248.495 68.2029 248.495 67.4876 250.735 67.4876V67.4801Z" fill="black"/>
<path d="M282.484 64.8949C281.887 64.8949 281.329 65.1556 280.934 65.6251C278.671 68.1882 276.447 69.3357 273.719 69.3357C272.014 69.3357 270.96 68.6726 270.96 65.3717C270.96 62.0709 271.115 58.7402 271.449 54.1355C271.48 53.8598 271.534 53.1892 271.534 52.906C271.534 51.9895 270.751 51.3562 269.635 51.3562C268.767 51.3562 267.807 51.8331 267.737 52.8837C267.566 55.0072 267.163 60.4614 267.163 65.3419C267.163 70.2224 269.186 72.7111 273.719 72.7111C277.648 72.7111 280.996 71.0718 283.964 67.6816C284.266 67.3165 284.413 66.9514 284.413 66.5639C284.413 65.6549 283.53 64.8874 282.484 64.8874V64.8949Z" fill="black"/>
<path d="M298.517 64.7979C297.688 64.7979 297.06 65.2822 296.82 66.0944C296.247 68.1583 295.634 68.1584 295.34 68.1584C294.565 68.1584 292.558 66.2211 292.558 57.3692C292.558 56.9072 292.597 56.2887 292.628 55.7895C292.651 55.4468 292.666 55.1562 292.666 55.0072C292.666 53.9416 291.698 53.3828 290.737 53.3828C289.892 53.3828 288.939 53.8448 288.838 54.8581C288.784 55.4915 288.73 56.2664 288.73 57.4437C288.73 69.276 292.372 71.7647 295.425 71.7647C296.998 71.7647 299.129 70.9302 300.323 66.9736C300.392 66.7724 300.392 66.6085 300.392 66.4446C300.392 65.4089 299.439 64.7905 298.517 64.7905V64.7979Z" fill="black"/>
<path d="M311.683 64.2167C310.722 61.497 308.552 58.375 306.282 56.4452C305.863 56.0875 305.36 55.8938 304.871 55.8938C303.856 55.8938 302.996 56.6166 302.996 57.4734C302.996 57.764 303.097 58.1887 303.554 58.6135C305.422 60.3943 307.212 62.9723 308.219 65.3343C308.506 66.0497 309.157 66.4744 309.963 66.4744C310.869 66.4744 311.807 65.8634 311.807 64.85C311.807 64.6414 311.761 64.4328 311.675 64.2241L311.683 64.2167Z" fill="black"/>
</svg>
