<svg width="278" height="44" viewBox="0 0 278 44" fill="none" xmlns="http://www.w3.org/2000/svg">
<g clip-path="url(#clip0_311_337)">
<path d="M99.9833 12.3133H106.332V13.1538C106.332 13.9937 107.229 14.433 108.115 14.433C109.001 14.433 109.898 13.9937 109.898 13.1538V12.3133H115.814V13.0925C115.814 13.9323 116.711 14.3717 117.597 14.3717C118.483 14.3717 119.38 13.9323 119.38 13.0925V12.3133H125.89C126.783 12.3133 127.19 11.5866 127.19 10.9114C127.19 10.2361 126.783 9.5094 125.89 9.5094H119.38V8.30019C119.38 7.40011 118.456 6.99023 117.597 6.99023C116.738 6.99023 115.814 7.40011 115.814 8.30019V9.5094H109.898V8.30019C109.898 7.40011 108.974 6.99023 108.115 6.99023C107.257 6.99023 106.332 7.40011 106.332 8.30019V9.5094H99.9833C99.1504 9.5094 98.7147 10.2146 98.7147 10.9114C98.7147 11.6081 99.1504 12.3133 99.9833 12.3133Z" fill="#231815"/>
<path d="M126.501 19.8311H121.078C122.369 18.9465 123.557 18.0314 124.617 17.1055C125.023 16.7168 125.23 16.2968 125.23 15.8572C125.23 14.9994 124.459 14.3016 123.511 14.3016C123.026 14.3016 122.554 14.498 122.179 14.856C120.43 16.5891 118.24 18.2628 115.67 19.8311H113.851V18.1193H117.597C118.388 18.1193 118.801 17.4295 118.801 16.748C118.801 16.0655 118.429 15.3768 117.597 15.3768H113.851V14.4748C113.851 13.5745 112.955 13.1035 112.068 13.1035C111.182 13.1035 110.286 13.5745 110.286 14.4748V15.3768H103.326C102.535 15.3768 102.122 16.0666 102.122 16.748C102.122 17.4129 102.544 18.1193 103.326 18.1193H110.286V19.8311H99.4366C98.6095 19.8311 98.2327 20.5578 98.2327 21.2331C98.2327 21.9085 98.6095 22.6353 99.4366 22.6353H110.523C107.01 24.3302 103.315 25.7645 99.534 26.9012C98.7593 27.1289 98.2967 27.686 98.2967 28.3909C98.2967 29.1555 98.8915 29.9464 99.8869 29.9464C100.063 29.9464 100.269 29.9119 100.465 29.8497C102.583 29.2214 104.85 28.3602 106.429 27.7266V32.6303C106.429 34.6035 107.625 35.4453 110.429 35.4453H119.719C122.523 35.4453 123.719 34.6035 123.719 32.6303V27.4387C123.719 25.4654 122.523 24.6234 119.719 24.6234H112.774C113.983 24.0252 115.238 23.3723 116.596 22.6353H126.501C127.312 22.6353 127.737 21.9299 127.737 21.2331C127.737 20.5364 127.312 19.8311 126.501 19.8311ZM120.089 31.2981V32.2002C120.089 32.6265 120.023 32.7643 119.237 32.7643H110.911C110.159 32.7643 110.059 32.651 110.059 32.2002V31.2981H120.089ZM120.089 28.8014H110.059V27.8072C110.059 27.3808 110.125 27.2431 110.911 27.2431H119.237C120.023 27.2431 120.089 27.3808 120.089 27.8072V28.8014Z" fill="#231815"/>
<path d="M137.027 16.7229C138.377 14.2481 139.481 11.7104 140.14 9.56556C140.206 9.3753 140.242 9.17675 140.242 9.00658C140.242 7.95598 139.205 7.32812 138.202 7.32812C137.333 7.32812 136.639 7.80513 136.392 8.5739C135.055 12.8529 132.641 17.4561 130.241 20.3026C129.921 20.6997 129.766 21.0946 129.766 21.5096C129.766 22.4363 130.659 23.2493 131.677 23.2493C132.235 23.2493 132.767 22.9845 133.176 22.504C133.672 21.924 134.179 21.2662 134.684 20.5453V34.6884C134.684 35.6304 135.658 36.0596 136.563 36.0596C137.48 36.0596 138.41 35.5887 138.41 34.6884V18.1304C138.41 17.2766 137.722 16.851 137.027 16.7229Z" fill="#231815"/>
<path d="M158.516 13.1651H146.981C147.508 11.8263 147.921 10.561 148.211 9.39841L148.225 9.33379C148.252 9.2076 148.278 9.08852 148.278 8.94531C148.278 7.93487 147.293 7.38965 146.366 7.38965C145.483 7.38965 144.802 7.8803 144.587 8.6709C143.571 12.526 141.797 16.3641 139.718 19.2031C139.453 19.5832 139.312 19.977 139.312 20.3423C139.312 21.2341 140.112 21.9595 141.095 21.9595C141.74 21.9595 142.332 21.6379 142.759 21.0544C143.794 19.6633 144.739 18.0976 145.568 16.3991H147.38V34.5657C147.38 35.5264 148.293 36.029 149.195 36.029C150.069 36.029 151.01 35.571 151.01 34.5657V28.5642H156.812C157.751 28.5642 158.242 27.7663 158.242 26.978C158.242 26.1896 157.751 25.3915 156.812 25.3915H151.01V22.4509H156.684C157.622 22.4509 158.113 21.6528 158.113 20.8645C158.113 20.0762 157.622 19.2782 156.684 19.2782H151.01V16.3991H158.516C159.52 16.3991 159.978 15.5609 159.978 14.7821C159.978 13.9785 159.476 13.1651 158.516 13.1651Z" fill="#231815"/>
<path d="M191.078 14.8239H182.07C182.112 14.6934 182.155 14.562 182.199 14.4298C182.365 13.9196 182.537 13.393 182.678 12.8664H188.828C189.7 12.8664 190.096 12.1236 190.096 11.4335C190.096 10.7216 189.661 10.0009 188.828 10.0009H179.03L179.073 9.89578C179.199 9.58709 179.318 9.29543 179.416 8.98871C179.48 8.83688 179.522 8.63898 179.522 8.48442C179.522 7.5684 178.648 7.021 177.803 7.021C177.084 7.021 176.504 7.41537 176.252 8.0775C175.679 9.65521 174.865 11.2239 174.018 12.3795C173.769 12.7076 173.642 13.0404 173.642 13.3689C173.642 14.2539 174.517 14.8016 175.328 14.8016C175.751 14.8016 176.355 14.6658 176.836 14.0133C176.921 13.8812 177.01 13.7491 177.098 13.6172C177.263 13.3716 177.433 13.1181 177.579 12.8663H179.067C178.867 13.5195 178.659 14.1892 178.403 14.8239H173.882C173.537 14.8239 173.233 14.9554 173.012 15.1931C172.921 14.5004 172.473 13.8716 171.696 13.8716H169.815V8.3923C169.815 7.49232 168.924 7.08245 168.096 7.08245C167.253 7.08245 166.346 7.49233 166.346 8.3923V13.8716H163.468C162.614 13.8716 162.167 14.6696 162.167 15.4579C162.167 16.2461 162.625 17.0441 163.5 17.0441H165.991C164.99 20.8559 163.667 24.0428 162.056 26.5188C161.847 26.8517 161.749 27.1441 161.749 27.4385C161.749 28.3011 162.553 28.9021 163.275 28.9021C163.81 28.9021 164.277 28.6213 164.589 28.1146C165.246 27.1211 165.878 25.8953 166.433 24.5425L166.346 30.2034V34.627C166.346 35.6113 167.253 36.0597 168.096 36.0597C168.924 36.0597 169.815 35.6113 169.815 34.627V22.1142C170.104 22.4496 170.392 22.805 170.674 23.1728C170.964 23.5732 171.407 23.8026 171.889 23.8026C172.638 23.8026 173.447 23.2549 173.447 22.3699C173.447 22.1221 173.375 21.7433 173.035 21.3449C172.031 20.1628 170.919 19.1175 169.815 18.3187V17.044H171.696C172.085 17.044 172.396 16.9004 172.641 16.6063C172.75 17.2152 173.172 17.7507 173.882 17.7507H177.107C175.847 20.2058 174.24 22.3653 172.195 24.3506C171.833 24.7276 171.649 25.1258 171.649 25.534C171.649 26.3627 172.437 27.0897 173.335 27.0897C173.785 27.0897 174.234 26.8878 174.633 26.5059C174.887 26.2632 175.126 26.0154 175.346 25.784V34.6885C175.346 35.6096 176.236 36.0289 177.064 36.0289C177.892 36.0289 178.782 35.6096 178.782 34.6885V34.4932H190.628C191.431 34.4932 191.864 33.7865 191.864 33.1217C191.864 32.4614 191.478 31.7506 190.628 31.7506H185.34V30.4379H189.182C189.93 30.4379 190.321 29.7945 190.321 29.159C190.321 28.5233 189.93 27.8797 189.182 27.8797H185.34V26.6288H189.182C189.93 26.6288 190.321 25.9853 190.321 25.3496C190.321 24.7138 189.93 24.0705 189.182 24.0705H185.34V22.7888H190.178C191.006 22.7888 191.382 22.0939 191.382 21.4482C191.382 20.8026 191.006 20.1078 190.178 20.1078H185.685C185.716 20.027 185.746 19.9458 185.776 19.8617C185.807 19.7729 185.84 19.6812 185.877 19.5871C185.947 19.4212 185.982 19.2516 185.982 19.0828C185.982 18.2823 185.157 17.8038 184.36 17.8038C183.603 17.8038 183.023 18.1882 182.807 18.8357C182.729 19.0981 182.627 19.3684 182.52 19.6548C182.464 19.8048 182.407 19.9563 182.353 20.1078H179.633L179.713 19.9667C180.132 19.2204 180.53 18.5143 180.866 17.7507H191.078C191.911 17.7507 192.347 17.0146 192.347 16.2873C192.347 15.5601 191.911 14.8239 191.078 14.8239ZM178.782 27.8797V26.6288H181.967V27.8797H178.782ZM181.967 24.0705H178.782V23.3221C178.782 22.9685 178.875 22.7888 179.378 22.7888H181.967V24.0705ZM181.967 30.4379V31.7506H178.782V30.4379H181.967Z" fill="#231815"/>
<path d="M209.455 30.9084C209.367 30.9084 209.268 30.9084 209.145 30.9328C207.871 31.1841 206.348 31.3168 204.741 31.3168C201.303 31.3168 200.613 30.6043 200.613 29.4542C200.613 28.2774 201.425 27.15 203.025 26.1048C204.426 25.2114 206.467 24.3087 208.622 23.6283C209.189 23.4532 209.527 23.0028 209.527 22.4232C209.527 21.7679 209.041 21.0605 208.255 21.0605C208.11 21.0605 207.964 21.085 207.822 21.1324C206.438 21.5613 205.04 22.1106 203.768 22.7256C203.47 20.9103 203.313 18.819 203.313 16.6607C203.313 15.7945 202.608 15.3413 201.912 15.3413C201.216 15.3413 200.511 15.7945 200.511 16.6607C200.511 19.3621 200.771 21.8918 201.284 24.181C198.915 25.8207 197.811 27.5395 197.811 29.5833C197.811 32.5691 200.071 34.0206 204.719 34.0206C206.744 34.0206 208.32 33.8896 209.682 33.6082C210.353 33.4563 210.77 32.9356 210.77 32.2495C210.77 31.583 210.318 30.9084 209.455 30.9084Z" fill="#231815"/>
<path d="M234.945 12.0898C234.115 12.0898 233.226 12.6285 233.226 13.4305C233.226 13.6656 233.297 13.902 233.434 14.1319C233.784 14.7337 234.056 15.2345 234.328 15.8718C234.576 16.4329 235.119 16.7677 235.78 16.7677C236.622 16.7677 237.531 16.2082 237.531 15.3043C237.531 15.0858 237.487 14.8858 237.395 14.6818C237.221 14.21 236.873 13.4793 236.42 12.8469C236.11 12.3729 235.558 12.0898 234.945 12.0898Z" fill="#231815"/>
<path d="M228.516 12.4977C228.63 12.4977 228.832 12.4901 229.035 12.4823C229.234 12.4747 229.433 12.4671 229.551 12.4669C232.892 12.2691 238.133 11.7637 241.909 10.9904C242.972 10.7802 243.349 10.0222 243.349 9.43696C243.349 8.62693 242.718 7.78906 241.662 7.78906C241.529 7.78906 241.392 7.78906 241.256 7.82181C237.322 8.56777 232.653 9.10459 228.448 9.2944C227.365 9.32693 226.798 10.117 226.798 10.8807C226.798 11.6843 227.388 12.4977 228.516 12.4977Z" fill="#231815"/>
<path d="M244.04 31.5705C241.982 30.9773 240.195 30.2218 238.726 29.3234C239.744 28.3402 240.588 27.3615 241.304 26.3341C241.801 25.6074 242.063 24.9055 242.063 24.305C242.063 22.8561 240.808 21.92 238.866 21.92H230.091C229.989 21.92 229.893 21.9283 229.806 21.9451C229.835 21.8368 229.849 21.7137 229.849 21.5709V20.6492C229.849 20.1704 229.907 20.0853 230.638 20.0853H241.02C241.75 20.0853 241.808 20.1704 241.808 20.6492V21.5709C241.808 22.5317 242.705 23.0344 243.591 23.0344C244.477 23.0344 245.374 22.5317 245.374 21.5709V19.7893C245.374 17.9734 244.327 17.1277 242.08 17.1277H241.097C241.805 16.0409 242.428 14.97 242.95 13.9431C243.084 13.6864 243.156 13.4241 243.156 13.1844C243.156 12.2426 242.18 11.6596 241.277 11.6596C240.559 11.6596 239.983 12.0076 239.696 12.6168C238.984 14.2269 238.132 15.7854 237.232 17.1277H231.567C232.205 16.9156 232.742 16.3831 232.742 15.6726C232.742 15.4209 232.661 15.1795 232.567 14.9423C232.311 14.4829 231.917 13.8247 231.498 13.3005C231.141 12.8366 230.642 12.5812 230.091 12.5812C229.248 12.5812 228.309 13.1822 228.309 14.0446C228.309 14.3462 228.4 14.61 228.586 14.8459C228.897 15.2918 229.247 15.8657 229.478 16.3082C229.688 16.7095 229.997 16.9888 230.374 17.1277H229.577C227.391 17.1277 226.283 18.0129 226.283 19.7585V21.3467C226.001 21.0079 225.595 20.814 225.141 20.814C224.914 20.814 224.707 20.8557 224.477 20.9496C224.148 21.0806 223.81 21.2155 223.453 21.3491V16.8905H225.109C226.047 16.8905 226.538 16.0923 226.538 15.304C226.538 14.5158 226.047 13.7178 225.109 13.7178H223.453V8.69925C223.453 7.7149 222.512 7.2666 221.638 7.2666C220.764 7.2666 219.823 7.7149 219.823 8.69925V13.7178H217.491C216.574 13.7178 216.094 14.5158 216.094 15.304C216.094 16.0923 216.574 16.8905 217.491 16.8905H219.823V22.5642C218.905 22.8547 217.948 23.1211 217.046 23.3366C216.241 23.5437 215.741 24.1502 215.741 24.9193C215.741 25.7561 216.386 26.6592 217.427 26.6592C217.599 26.6592 217.767 26.6271 217.935 26.5948C218.478 26.4649 219.037 26.2937 219.628 26.1126L219.823 26.0532V31.8929C219.823 32.3164 219.713 32.426 219.291 32.426C219.057 32.426 218.706 32.3985 218.449 32.3369C218.396 32.3247 218.339 32.3267 218.289 32.3179C218.243 32.3099 218.201 32.3033 218.166 32.3033C217.059 32.3033 216.48 33.163 216.48 34.0125C216.48 34.8767 217.035 35.5111 217.89 35.6277C218.433 35.7251 219.125 35.7831 219.741 35.7831C222.239 35.7831 223.453 34.7115 223.453 32.5072V24.813C224.39 24.4663 225.159 24.1417 225.8 23.8223C226.341 23.5636 226.664 23.1049 226.696 22.5546C227.026 22.8563 227.521 23.0344 228.066 23.0344C228.351 23.0344 228.604 22.9956 228.832 22.9161C228.781 23.0765 228.758 23.2272 228.758 23.3833C228.758 24.1105 229.216 24.8468 230.091 24.8468H230.344C231.214 26.559 232.257 28.0424 233.447 29.2586C231.337 30.511 229.014 31.4683 226.72 32.0304C225.83 32.2651 225.319 32.831 225.319 33.5824C225.319 34.4227 226.023 35.3223 227.07 35.3223C227.208 35.3223 227.375 35.2904 227.546 35.2579C230.63 34.506 233.552 33.2204 236.003 31.5386C238.097 33.0962 240.478 34.2436 243.075 34.9483C243.272 35.0112 243.478 35.0457 243.656 35.0457C244.756 35.0457 245.438 34.1107 245.438 33.2444C245.438 32.6482 245.071 31.8521 244.04 31.5705ZM238.015 25.0422C238.015 25.1227 237.911 25.2889 237.872 25.3507C237.442 26.0252 236.837 26.6978 236.073 27.3508C235.221 26.5562 234.501 25.715 233.928 24.8468H237.548C238.015 24.8468 238.015 24.9837 238.015 25.0422Z" fill="#231815"/>
<path d="M276.626 31.8449C273.065 31.1116 269.775 30.0229 267.076 28.6871H275.735C276.629 28.6871 277.036 27.9603 277.036 27.2851C277.036 26.6099 276.629 25.8831 275.735 25.8831H264.629V24.4783H272.489C273.339 24.4783 273.725 23.7675 273.725 23.1071C273.725 22.4247 273.343 21.7359 272.489 21.7359H264.629V20.3927H275.124C275.957 20.3927 276.393 19.6873 276.393 18.9907C276.393 18.2939 275.957 17.5885 275.124 17.5885H268.27C268.608 17.1069 268.882 16.6681 269.145 16.1912C269.283 15.9597 269.354 15.7233 269.354 15.4886C269.354 15.1834 269.235 14.9079 269.008 14.6788H276.121C277.037 14.6788 277.454 13.9202 277.454 13.2154C277.454 12.5253 277.037 11.7826 276.121 11.7826H271.56C271.627 11.7306 271.694 11.6717 271.765 11.6045C272.342 11.0201 272.842 10.3052 273.26 9.67748C273.446 9.35842 273.533 9.10617 273.533 8.88382C273.533 8.0214 272.61 7.4204 271.782 7.4204C271.164 7.4204 270.651 7.70103 270.338 8.2098C269.985 8.77107 269.611 9.2639 269.157 9.76426C268.895 10.078 268.778 10.375 268.778 10.7271C268.778 11.1353 268.979 11.5153 269.321 11.7826H267.265V8.11582C267.265 7.17371 266.374 6.74463 265.546 6.74463C264.675 6.74463 263.795 7.16858 263.795 8.11582V11.7826H261.768V8.11582C261.768 7.17371 260.877 6.74463 260.05 6.74463C259.222 6.74463 258.331 7.17371 258.331 8.11582V11.7826H256.434C256.789 11.5049 257.011 11.1024 257.011 10.6963C257.011 10.3667 256.875 10.0041 256.605 9.61723C256.191 9.04046 255.77 8.57066 255.241 8.09639C254.884 7.75474 254.446 7.57409 253.975 7.57409C253.076 7.57409 252.288 8.24353 252.288 9.00673C252.288 9.30953 252.421 9.6121 252.671 9.87986L252.724 9.94C253.236 10.5162 253.606 10.9325 253.884 11.3748C253.996 11.5353 254.121 11.6705 254.261 11.7826H249.764C248.919 11.7826 248.463 12.5208 248.463 13.2154C248.463 13.9426 248.91 14.6788 249.764 14.6788H256.799C256.565 14.9091 256.435 15.2031 256.435 15.5193C256.435 15.8093 256.555 16.1099 256.781 16.3883C257.046 16.7181 257.291 17.0711 257.551 17.4449L257.65 17.5885H251.243C250.41 17.5885 249.974 18.2939 249.974 18.9907C249.974 19.6873 250.41 20.3927 251.243 20.3927H261.127V21.7359H253.461C252.611 21.7359 252.224 22.4467 252.224 23.1071C252.224 23.7719 252.658 24.4783 253.461 24.4783H261.127V25.8831H250.118C249.264 25.8831 248.817 26.5885 248.817 27.2851C248.817 27.9817 249.264 28.6871 250.118 28.6871H258.689C255.818 30.2672 252.566 31.5157 249.254 32.307C248.457 32.512 247.982 33.0578 247.982 33.7669C247.982 34.506 248.539 35.2917 249.572 35.2917C249.718 35.2917 249.859 35.2688 250.022 35.242L250.114 35.2267C254.278 34.121 258.221 32.4485 261.246 30.5071L261.127 33.091V34.9342C261.127 35.7943 262.008 36.2442 262.878 36.2442C263.721 36.2442 264.629 35.8342 264.629 34.9342L264.628 33.0849L264.48 30.3842C267.515 32.3101 271.617 33.9808 275.782 34.9833C275.975 35.0141 276.175 35.0459 276.346 35.0459C277.432 35.0459 278 34.2325 278 33.4289C278 32.7993 277.639 32.0525 276.626 31.8449ZM260.804 16.9324C260.804 16.6732 260.72 16.4077 260.562 16.1656C260.199 15.5981 259.906 15.2269 259.484 14.732C259.465 14.7143 259.447 14.6965 259.428 14.6788H266.202C266.06 14.8202 265.938 14.9908 265.83 15.1956C265.468 15.9752 264.984 16.8015 264.428 17.5885H260.597C260.73 17.3818 260.804 17.1517 260.804 16.9324Z" fill="#231815"/>
<path d="M84.2161 7.44531H6.45393C3.58158 7.44531 1.25311 9.78179 1.25311 12.664V26.2605C1.25311 29.1427 3.58158 31.4792 6.45393 31.4792H68.5911C71.4957 37.6491 77.6798 35.9898 77.6798 35.9898C77.6798 35.9898 76.0256 34.8802 75.5526 31.4792H84.2161C87.0884 31.4792 89.417 29.1427 89.417 26.2605V12.664C89.417 9.78179 87.0884 7.44531 84.2161 7.44531Z" fill="white"/>
<path d="M75.8426 37.4688C73.2871 37.4688 69.9074 36.4545 67.8279 32.7366H6.45405C2.89529 32.7366 0 29.8314 0 26.2603V12.6637C0 9.09272 2.89529 6.1875 6.45405 6.1875H84.2161C87.7749 6.1875 90.6702 9.09272 90.6702 12.6637V26.2603C90.6702 29.8314 87.7749 32.7366 84.2161 32.7366H77.1052C77.5752 34.262 78.2798 34.8655 78.3882 34.9512C78.8111 35.2128 79.0159 35.686 78.9464 36.1812C78.876 36.6809 78.4894 37.0741 78.0035 37.2045C77.4197 37.3612 76.6746 37.4688 75.8426 37.4688ZM6.45405 8.70277C4.27726 8.70277 2.50639 10.4796 2.50639 12.6637V26.2603C2.50639 28.4444 4.27726 30.2214 6.45405 30.2214H68.5912C69.076 30.2214 69.5173 30.502 69.7244 30.9419C71.1733 34.0196 73.5674 34.8005 75.2903 34.9224C74.8802 34.1164 74.5052 33.0456 74.3114 31.6528C74.2612 31.2924 74.3693 30.9279 74.6073 30.6534C74.8453 30.3789 75.1902 30.2214 75.5527 30.2214H84.2161C86.3929 30.2214 88.1638 28.4444 88.1638 26.2603V12.6637C88.1638 10.4796 86.3929 8.70278 84.2161 8.70278L6.45405 8.70277Z" fill="#231815"/>
<path d="M19.7613 15.5808C18.7251 15.5808 17.4968 15.6003 16.0108 15.6402V14.2913C16.0108 13.7796 15.5641 13.5117 15.1229 13.5117C14.6685 13.5117 14.2084 13.784 14.2084 14.3041C14.2084 14.8039 14.2084 15.2793 14.2178 15.7018C12.6263 15.7587 10.874 15.8404 9.13874 15.9389C8.56263 15.9704 8.30011 16.4046 8.30011 16.7948C8.30011 17.2284 8.6066 17.6894 9.17434 17.6894C9.33035 17.6894 9.64124 17.676 9.78662 17.6633C10.7821 17.5993 12.2496 17.5276 13.3211 17.475C13.6721 17.4578 13.9879 17.4425 14.2419 17.4295L14.2671 18.0678C14.0559 18.0279 13.8455 18.0077 13.6391 18.0077C12.3215 18.0077 11.4013 18.9482 11.4013 20.2946C11.4013 21.7693 12.3812 22.7601 13.8396 22.7601C14.063 22.7601 14.2744 22.7263 14.464 22.6623C14.1477 23.0889 13.5856 23.5752 12.7476 23.9212C12.3507 24.0837 12.123 24.3773 12.123 24.7267C12.123 25.2128 12.5394 25.6085 13.0511 25.6085C13.1776 25.6085 13.319 25.5789 13.4783 25.5178C15.54 24.615 16.5854 23.1326 16.5854 21.112C16.5854 20.4501 16.4272 19.8453 16.1275 19.3597C16.0838 18.7449 16.056 18.1062 16.0405 17.3653C17.3949 17.328 18.6742 17.2935 19.8149 17.2935C20.3394 17.2935 20.6225 16.8588 20.6225 16.45C20.6225 16.0314 20.353 15.5808 19.7613 15.5808ZM14.5292 20.4477C14.5292 20.9102 14.3023 21.1754 13.9066 21.1754C13.5428 21.1754 13.1501 20.8533 13.1501 20.3329C13.1501 19.876 13.3835 19.5924 13.7594 19.5924C14.2199 19.5924 14.5292 19.9361 14.5292 20.4477Z" fill="#231815"/>
<path d="M32.8555 13.4552C32.7034 13.3103 32.5061 13.2305 32.2998 13.2305C31.9129 13.2305 31.5858 13.5115 31.5858 13.8441C31.5858 13.9798 31.6437 14.1191 31.7455 14.2328C31.94 14.4628 32.3118 14.9162 32.6186 15.3702C32.7746 15.5938 33.0044 15.7221 33.2489 15.7221C33.6418 15.7221 33.9495 15.4301 33.9495 15.0575C33.9495 14.9237 33.9005 14.7777 33.805 14.626C33.5852 14.2643 33.2401 13.8384 32.8555 13.4552Z" fill="#231815"/>
<path d="M31.1234 22.5927C31.058 22.5927 30.9924 22.6027 30.9172 22.6151L30.8778 22.6215C29.6318 22.8653 28.4146 22.9888 27.2603 22.9888C24.6775 22.9888 24.4722 22.524 24.4722 21.9163C24.4722 21.7528 24.4951 21.5057 24.5485 21.3125C24.5629 21.2453 24.5792 21.169 24.5792 21.0989C24.5792 20.609 24.1148 20.3447 23.678 20.3447C23.2344 20.3447 22.8866 20.586 22.7714 20.9715C22.6743 21.2763 22.6163 21.6535 22.6163 21.9801C22.6163 23.8973 24.0486 24.7524 27.2603 24.7524C28.6609 24.7524 29.9905 24.6177 31.2133 24.3522C31.7924 24.222 31.9979 23.7912 31.9979 23.4619C31.9979 23.0346 31.6707 22.5927 31.1234 22.5927Z" fill="#231815"/>
<path d="M31.4179 14.3301C31.2778 14.1812 31.0925 14.0991 30.8962 14.0991C30.5021 14.0991 30.1689 14.3917 30.1689 14.7381C30.1689 14.8857 30.2207 15.0215 30.3174 15.1293C30.6017 15.4524 30.9265 15.8401 31.1836 16.2701C31.3288 16.5015 31.5401 16.6289 31.7784 16.6289C32.1656 16.6289 32.4927 16.3187 32.4927 15.9515C32.4927 15.8103 32.452 15.6765 32.3759 15.5603C32.1486 15.1743 31.7898 14.7138 31.4179 14.3301Z" fill="#231815"/>
<path d="M24.2725 16.9705C24.993 17.121 25.8873 17.1912 27.0867 17.1912C27.8644 17.1912 28.8679 17.1734 29.7317 17.0358C30.2445 16.9569 30.4741 16.5499 30.4741 16.1816C30.4741 15.7542 30.163 15.2998 29.5863 15.2998C29.5576 15.2998 29.5289 15.3038 29.5001 15.3084C29.4887 15.3102 29.4774 15.3126 29.45 15.3135C28.834 15.3734 27.9174 15.4531 27.0731 15.4531C26.2486 15.4531 25.3591 15.3706 24.6388 15.228C24.5664 15.2104 24.4856 15.2104 24.4266 15.2104C23.8586 15.2104 23.5521 15.6714 23.5521 16.105C23.5521 16.4672 23.7757 16.8755 24.2725 16.9705Z" fill="#231815"/>
<path d="M37.9679 19.8361C37.7536 19.6058 37.6918 19.4966 37.6918 19.3493C37.6918 19.208 37.7265 19.1054 37.9255 18.9035C39.0284 17.7674 40.1973 16.3797 40.9802 15.2759C41.1045 15.083 41.1674 14.8979 41.1674 14.7255C41.1674 14.1809 40.6649 13.8438 40.1993 13.8438C39.8884 13.8438 39.609 13.9967 39.4337 14.2619C38.4382 15.7345 37.3646 17.0658 36.4874 17.9148C36.0249 18.3691 35.8094 18.8289 35.8094 19.3622C35.8094 19.8543 36.0415 20.3263 36.5631 20.8942C37.6068 22.0025 38.8437 23.5583 39.715 24.8591C39.9357 25.1821 40.2417 25.353 40.6004 25.353C41.0852 25.353 41.6085 25.0061 41.6085 24.4456C41.6085 24.2542 41.531 24.046 41.3747 23.822C40.2983 22.3825 39.0871 20.9656 37.9679 19.8361Z" fill="#231815"/>
<path d="M51.5751 16.7684C50.3791 16.7684 49.1187 17.2298 47.9111 18.1061L47.9144 18.0477C48.2426 17.6606 48.399 17.4181 48.399 17.1265C48.399 16.8997 48.262 16.6605 47.9608 16.5784L47.9981 14.7435C48.0046 14.5474 47.9386 14.3715 47.8072 14.235C47.6456 14.0674 47.3966 13.9712 47.1237 13.9712C46.6934 13.9712 46.2358 14.24 46.236 14.7359L46.211 16.7284L44.5731 16.9874C44.1176 17.0543 43.9101 17.4441 43.9101 17.778C43.9101 18.1925 44.2071 18.6215 44.7041 18.6215C44.7486 18.6215 44.8041 18.6215 44.8669 18.606L46.1764 18.3733L46.1571 19.0032C45.4298 20.1118 44.6125 21.2159 43.9087 22.039C43.7785 22.1947 43.7096 22.373 43.7096 22.5548C43.7096 22.9972 44.1244 23.3855 44.5972 23.3855C44.8509 23.3855 45.0798 23.2722 45.2585 23.0583L46.1227 22.0333L46.0889 24.4837C46.0889 24.9871 46.5287 25.2505 46.9631 25.2505C47.4044 25.2505 47.851 24.9871 47.851 24.4843L47.864 20.1505C49.09 19.0322 50.4057 18.4171 51.5751 18.4171C52.5776 18.4171 53.2002 19.0335 53.2002 20.0258C53.2002 21.4518 52.4732 22.2596 50.7701 22.7263C50.2262 22.8723 50.0323 23.2679 50.0323 23.5895C50.0323 24.0166 50.3744 24.4585 50.9468 24.4585C51.0126 24.4585 51.0787 24.4484 51.1546 24.4362L51.2013 24.4279C53.6765 23.8026 55.0962 22.1934 55.0962 20.0132C55.0962 18.133 53.6153 16.7684 51.5751 16.7684Z" fill="#231815"/>
<path d="M68.925 18.824C68.4767 17.9798 67.6348 16.7736 66.7631 15.9804C66.5532 15.7943 66.3026 15.6958 66.0382 15.6958C65.5281 15.6958 65.097 16.0645 65.097 16.501C65.097 16.6968 65.1895 16.9012 65.3581 17.0771C66.0534 17.7912 66.7525 18.7604 67.2294 19.6715C67.4269 20.0353 67.748 20.2439 68.1103 20.2439C68.573 20.2439 69.0515 19.9045 69.0515 19.3365C69.0515 19.1592 69.0078 18.9823 68.9254 18.8249L68.925 18.824Z" fill="#231815"/>
<path d="M62.2154 16.8071C62.0575 16.8071 61.8852 16.8072 61.6986 16.8122C61.8316 16.1498 61.935 15.5053 62.0069 14.879V14.7895C62.0069 14.2666 61.5357 13.9844 61.0924 13.9844C60.6127 13.9844 60.2512 14.2838 60.1925 14.7312C60.108 15.4346 59.9866 16.18 59.8314 16.9489C59.2048 17.0177 58.4884 17.1052 57.8142 17.2314C57.3661 17.3144 57.0767 17.6393 57.0767 18.0593C57.0767 18.4558 57.3598 18.8772 57.8842 18.8772C57.9464 18.8772 58.0238 18.8772 58.0907 18.8612C58.5476 18.7693 58.9938 18.6946 59.4209 18.6385C58.9026 20.4365 58.227 22.0617 57.4597 23.3538C57.3678 23.5146 57.3172 23.6847 57.3172 23.8326C57.3172 24.284 57.713 24.6378 58.2184 24.6378C58.5833 24.6378 58.8983 24.4592 59.0827 24.1478C59.9685 22.6576 60.7648 20.6372 61.3301 18.4472C61.6389 18.4275 61.9272 18.4175 62.1884 18.4175C62.6258 18.4175 62.8913 18.5042 62.8913 19.707C62.8913 20.76 62.7707 21.7266 62.5511 22.4305C62.3392 23.1329 62.1516 23.2062 61.774 23.2062C61.5407 23.2062 61.3634 23.1879 61.1583 23.1667L61.0391 23.1552C61.0267 23.1552 61.0145 23.1523 61.0036 23.1503C60.9767 23.1456 60.9521 23.1423 60.9321 23.1423C60.3756 23.1423 60.0843 23.5795 60.0843 24.0115C60.0843 24.3809 60.3311 24.7885 60.8805 24.8658C61.1579 24.9075 61.4983 24.9315 61.8143 24.9315C63.2344 24.9315 63.8986 24.3788 64.3527 22.8191C64.5897 22.0065 64.7204 20.9059 64.7204 19.7198C64.7204 17.6238 64.018 16.8071 62.2154 16.8071Z" fill="#231815"/>
<path d="M76.4646 18.3011C76.0847 18.3011 75.6871 18.3512 75.3035 18.4451C76.0327 17.7341 76.8451 16.8418 77.5572 15.965C77.7407 15.7315 77.8338 15.4949 77.8338 15.2617C77.8338 14.7172 77.3557 14.2905 76.7454 14.2905C76.6755 14.2905 76.6095 14.2905 76.5338 14.3052C75.086 14.5214 73.7485 14.666 72.7658 14.7123C72.2084 14.7447 71.9544 15.1653 71.9544 15.5426C71.9544 15.9577 72.2469 16.3989 72.7886 16.3989C72.9042 16.3989 73.0943 16.3827 73.2296 16.371C73.2941 16.3655 73.3446 16.3609 73.376 16.3601C73.8607 16.3231 74.5323 16.259 75.1409 16.1788C73.8417 17.6638 72.2612 19.1544 70.9391 20.1348C70.6802 20.327 70.5375 20.5877 70.5375 20.8689C70.5375 21.34 70.9562 21.7379 71.4518 21.7379C71.674 21.7379 71.9089 21.6535 72.1117 21.5011C73.6372 20.3752 74.9344 19.8731 76.3176 19.8731C77.4337 19.8731 78.1835 20.4632 78.1835 21.3415C78.1835 22.163 77.8183 22.8116 77.15 23.1873C76.6939 21.8973 75.7321 21.1622 74.4863 21.1622C73.257 21.1622 72.4624 21.8694 72.4624 22.9636C72.4624 24.2574 73.762 25.1611 75.6227 25.1611C78.33 25.1611 80.0795 23.6567 80.0795 21.3287C80.0795 19.4896 78.6605 18.3011 76.4646 18.3011ZM75.4233 23.5493C74.6421 23.5285 74.1442 23.3033 74.1442 22.9636C74.1442 22.7684 74.2739 22.632 74.4597 22.632C74.8874 22.632 75.2109 22.9403 75.4233 23.5493Z" fill="#231815"/>
</g>
<defs>
<clipPath id="clip0_311_337">
<rect width="278" height="31.2812" fill="white" transform="translate(0 6.1875)"/>
</clipPath>
</defs>
</svg>
